<?xml version="1.0" encoding="utf-8"?>
<svg xmlns="http://www.w3.org/2000/svg" xmlns:xlink="http://www.w3.org/1999/xlink" width="600" height="400" viewBox="0 0 2400 1600">
<defs>
  <clipPath id="clip180">
    <rect x="0" y="0" width="2400" height="1600"/>
  </clipPath>
</defs>
<path clip-path="url(#clip180)" d="M0 1600 L2400 1600 L2400 0 L0 0  Z" fill="#ffffff" fill-rule="evenodd" fill-opacity="1"/>
<defs>
  <clipPath id="clip181">
    <rect x="480" y="0" width="1681" height="1600"/>
  </clipPath>
</defs>
<path clip-path="url(#clip180)" d="M139.469 1474.16 L2352.76 1474.16 L2352.76 47.2441 L139.469 47.2441  Z" fill="#ffffff" fill-rule="evenodd" fill-opacity="1"/>
<defs>
  <clipPath id="clip182">
    <rect x="139" y="47" width="2214" height="1428"/>
  </clipPath>
</defs>
<polyline clip-path="url(#clip182)" style="stroke:#000000; stroke-linecap:round; stroke-linejoin:round; stroke-width:2; stroke-opacity:0.1; fill:none" points="261.203,1474.16 261.203,47.2441 "/>
<polyline clip-path="url(#clip182)" style="stroke:#000000; stroke-linecap:round; stroke-linejoin:round; stroke-width:2; stroke-opacity:0.1; fill:none" points="643.692,1474.16 643.692,47.2441 "/>
<polyline clip-path="url(#clip182)" style="stroke:#000000; stroke-linecap:round; stroke-linejoin:round; stroke-width:2; stroke-opacity:0.1; fill:none" points="1026.18,1474.16 1026.18,47.2441 "/>
<polyline clip-path="url(#clip182)" style="stroke:#000000; stroke-linecap:round; stroke-linejoin:round; stroke-width:2; stroke-opacity:0.1; fill:none" points="1408.67,1474.16 1408.67,47.2441 "/>
<polyline clip-path="url(#clip182)" style="stroke:#000000; stroke-linecap:round; stroke-linejoin:round; stroke-width:2; stroke-opacity:0.1; fill:none" points="1791.16,1474.16 1791.16,47.2441 "/>
<polyline clip-path="url(#clip182)" style="stroke:#000000; stroke-linecap:round; stroke-linejoin:round; stroke-width:2; stroke-opacity:0.1; fill:none" points="2173.65,1474.16 2173.65,47.2441 "/>
<polyline clip-path="url(#clip180)" style="stroke:#000000; stroke-linecap:round; stroke-linejoin:round; stroke-width:4; stroke-opacity:1; fill:none" points="139.469,1474.16 2352.76,1474.16 "/>
<polyline clip-path="url(#clip180)" style="stroke:#000000; stroke-linecap:round; stroke-linejoin:round; stroke-width:4; stroke-opacity:1; fill:none" points="261.203,1474.16 261.203,1455.27 "/>
<polyline clip-path="url(#clip180)" style="stroke:#000000; stroke-linecap:round; stroke-linejoin:round; stroke-width:4; stroke-opacity:1; fill:none" points="643.692,1474.16 643.692,1455.27 "/>
<polyline clip-path="url(#clip180)" style="stroke:#000000; stroke-linecap:round; stroke-linejoin:round; stroke-width:4; stroke-opacity:1; fill:none" points="1026.18,1474.16 1026.18,1455.27 "/>
<polyline clip-path="url(#clip180)" style="stroke:#000000; stroke-linecap:round; stroke-linejoin:round; stroke-width:4; stroke-opacity:1; fill:none" points="1408.67,1474.16 1408.67,1455.27 "/>
<polyline clip-path="url(#clip180)" style="stroke:#000000; stroke-linecap:round; stroke-linejoin:round; stroke-width:4; stroke-opacity:1; fill:none" points="1791.16,1474.16 1791.16,1455.27 "/>
<polyline clip-path="url(#clip180)" style="stroke:#000000; stroke-linecap:round; stroke-linejoin:round; stroke-width:4; stroke-opacity:1; fill:none" points="2173.65,1474.16 2173.65,1455.27 "/>
<path clip-path="url(#clip180)" d="M261.203 1505.08 Q257.592 1505.08 255.764 1508.65 Q253.958 1512.19 253.958 1519.32 Q253.958 1526.43 255.764 1529.99 Q257.592 1533.53 261.203 1533.53 Q264.838 1533.53 266.643 1529.99 Q268.472 1526.43 268.472 1519.32 Q268.472 1512.19 266.643 1508.65 Q264.838 1505.08 261.203 1505.08 M261.203 1501.38 Q267.014 1501.38 270.069 1505.99 Q273.148 1510.57 273.148 1519.32 Q273.148 1528.05 270.069 1532.65 Q267.014 1537.24 261.203 1537.24 Q255.393 1537.24 252.315 1532.65 Q249.259 1528.05 249.259 1519.32 Q249.259 1510.57 252.315 1505.99 Q255.393 1501.38 261.203 1501.38 Z" fill="#000000" fill-rule="nonzero" fill-opacity="1" /><path clip-path="url(#clip180)" d="M551.136 1548.29 L558.775 1548.29 L558.775 1521.92 L550.465 1523.59 L550.465 1519.33 L558.729 1517.66 L563.405 1517.66 L563.405 1548.29 L571.044 1548.29 L571.044 1552.22 L551.136 1552.22 L551.136 1548.29 Z" fill="#000000" fill-rule="nonzero" fill-opacity="1" /><path clip-path="url(#clip180)" d="M580.488 1546.35 L585.372 1546.35 L585.372 1552.22 L580.488 1552.22 L580.488 1546.35 Z" fill="#000000" fill-rule="nonzero" fill-opacity="1" /><path clip-path="url(#clip180)" d="M605.557 1520.74 Q601.946 1520.74 600.118 1524.31 Q598.312 1527.85 598.312 1534.98 Q598.312 1542.09 600.118 1545.65 Q601.946 1549.19 605.557 1549.19 Q609.192 1549.19 610.997 1545.65 Q612.826 1542.09 612.826 1534.98 Q612.826 1527.85 610.997 1524.31 Q609.192 1520.74 605.557 1520.74 M605.557 1517.04 Q611.368 1517.04 614.423 1521.65 Q617.502 1526.23 617.502 1534.98 Q617.502 1543.71 614.423 1548.31 Q611.368 1552.9 605.557 1552.9 Q599.747 1552.9 596.669 1548.31 Q593.613 1543.71 593.613 1534.98 Q593.613 1526.23 596.669 1521.65 Q599.747 1517.04 605.557 1517.04 Z" fill="#000000" fill-rule="nonzero" fill-opacity="1" /><path clip-path="url(#clip180)" d="M653.89 1526.76 L643.312 1537.39 L653.89 1547.97 L651.136 1550.77 L640.511 1540.14 L629.886 1550.77 L627.154 1547.97 L637.71 1537.39 L627.154 1526.76 L629.886 1523.96 L640.511 1534.59 L651.136 1523.96 L653.89 1526.76 Z" fill="#000000" fill-rule="nonzero" fill-opacity="1" /><path clip-path="url(#clip180)" d="M666.252 1548.29 L673.89 1548.29 L673.89 1521.92 L665.58 1523.59 L665.58 1519.33 L673.844 1517.66 L678.52 1517.66 L678.52 1548.29 L686.159 1548.29 L686.159 1552.22 L666.252 1552.22 L666.252 1548.29 Z" fill="#000000" fill-rule="nonzero" fill-opacity="1" /><path clip-path="url(#clip180)" d="M705.603 1520.74 Q701.992 1520.74 700.163 1524.31 Q698.358 1527.85 698.358 1534.98 Q698.358 1542.09 700.163 1545.65 Q701.992 1549.19 705.603 1549.19 Q709.237 1549.19 711.043 1545.65 Q712.872 1542.09 712.872 1534.98 Q712.872 1527.85 711.043 1524.31 Q709.237 1520.74 705.603 1520.74 M705.603 1517.04 Q711.413 1517.04 714.469 1521.65 Q717.548 1526.23 717.548 1534.98 Q717.548 1543.71 714.469 1548.31 Q711.413 1552.9 705.603 1552.9 Q699.793 1552.9 696.714 1548.31 Q693.659 1543.71 693.659 1534.98 Q693.659 1526.23 696.714 1521.65 Q699.793 1517.04 705.603 1517.04 Z" fill="#000000" fill-rule="nonzero" fill-opacity="1" /><path clip-path="url(#clip180)" d="M719.353 1524.23 L719.353 1520.77 Q720.782 1521.45 722.249 1521.81 Q723.716 1522.16 725.127 1522.16 Q728.889 1522.16 730.863 1519.64 Q732.857 1517.1 733.139 1511.95 Q732.048 1513.57 730.374 1514.43 Q728.701 1515.3 726.669 1515.3 Q722.456 1515.3 719.993 1512.76 Q717.548 1510.2 717.548 1505.78 Q717.548 1501.46 720.105 1498.84 Q722.663 1496.23 726.914 1496.23 Q731.785 1496.23 734.343 1499.97 Q736.92 1503.69 736.92 1510.8 Q736.92 1517.44 733.76 1521.41 Q730.619 1525.36 725.296 1525.36 Q723.867 1525.36 722.4 1525.08 Q720.933 1524.8 719.353 1524.23 M726.914 1512.33 Q729.472 1512.33 730.957 1510.58 Q732.462 1508.83 732.462 1505.78 Q732.462 1502.75 730.957 1501 Q729.472 1499.24 726.914 1499.24 Q724.356 1499.24 722.851 1501 Q721.366 1502.75 721.366 1505.78 Q721.366 1508.83 722.851 1510.58 Q724.356 1512.33 726.914 1512.33 Z" fill="#000000" fill-rule="nonzero" fill-opacity="1" /><path clip-path="url(#clip180)" d="M937.711 1548.29 L954.03 1548.29 L954.03 1552.22 L932.086 1552.22 L932.086 1548.29 Q934.748 1545.53 939.331 1540.91 Q943.938 1536.25 945.118 1534.91 Q947.364 1532.39 948.243 1530.65 Q949.146 1528.89 949.146 1527.2 Q949.146 1524.45 947.202 1522.71 Q945.28 1520.97 942.178 1520.97 Q939.979 1520.97 937.526 1521.74 Q935.095 1522.5 932.317 1524.05 L932.317 1519.33 Q935.141 1518.2 937.595 1517.62 Q940.049 1517.04 942.086 1517.04 Q947.456 1517.04 950.651 1519.72 Q953.845 1522.41 953.845 1526.9 Q953.845 1529.03 953.035 1530.95 Q952.248 1532.85 950.141 1535.44 Q949.563 1536.11 946.461 1539.33 Q943.359 1542.53 937.711 1548.29 Z" fill="#000000" fill-rule="nonzero" fill-opacity="1" /><path clip-path="url(#clip180)" d="M963.845 1546.35 L968.729 1546.35 L968.729 1552.22 L963.845 1552.22 L963.845 1546.35 Z" fill="#000000" fill-rule="nonzero" fill-opacity="1" /><path clip-path="url(#clip180)" d="M988.914 1520.74 Q985.303 1520.74 983.475 1524.31 Q981.669 1527.85 981.669 1534.98 Q981.669 1542.09 983.475 1545.65 Q985.303 1549.19 988.914 1549.19 Q992.549 1549.19 994.354 1545.65 Q996.183 1542.09 996.183 1534.98 Q996.183 1527.85 994.354 1524.31 Q992.549 1520.74 988.914 1520.74 M988.914 1517.04 Q994.724 1517.04 997.78 1521.65 Q1000.86 1526.23 1000.86 1534.98 Q1000.86 1543.71 997.78 1548.31 Q994.724 1552.9 988.914 1552.9 Q983.104 1552.9 980.025 1548.31 Q976.97 1543.71 976.97 1534.98 Q976.97 1526.23 980.025 1521.65 Q983.104 1517.04 988.914 1517.04 Z" fill="#000000" fill-rule="nonzero" fill-opacity="1" /><path clip-path="url(#clip180)" d="M1037.25 1526.76 L1026.67 1537.39 L1037.25 1547.97 L1034.49 1550.77 L1023.87 1540.14 L1013.24 1550.77 L1010.51 1547.97 L1021.07 1537.39 L1010.51 1526.76 L1013.24 1523.96 L1023.87 1534.59 L1034.49 1523.96 L1037.25 1526.76 Z" fill="#000000" fill-rule="nonzero" fill-opacity="1" /><path clip-path="url(#clip180)" d="M1049.61 1548.29 L1057.25 1548.29 L1057.25 1521.92 L1048.94 1523.59 L1048.94 1519.33 L1057.2 1517.66 L1061.88 1517.66 L1061.88 1548.29 L1069.52 1548.29 L1069.52 1552.22 L1049.61 1552.22 L1049.61 1548.29 Z" fill="#000000" fill-rule="nonzero" fill-opacity="1" /><path clip-path="url(#clip180)" d="M1088.96 1520.74 Q1085.35 1520.74 1083.52 1524.31 Q1081.71 1527.85 1081.71 1534.98 Q1081.71 1542.09 1083.52 1545.65 Q1085.35 1549.19 1088.96 1549.19 Q1092.59 1549.19 1094.4 1545.65 Q1096.23 1542.09 1096.23 1534.98 Q1096.23 1527.85 1094.4 1524.31 Q1092.59 1520.74 1088.96 1520.74 M1088.96 1517.04 Q1094.77 1517.04 1097.83 1521.65 Q1100.9 1526.23 1100.9 1534.98 Q1100.9 1543.71 1097.83 1548.31 Q1094.77 1552.9 1088.96 1552.9 Q1083.15 1552.9 1080.07 1548.31 Q1077.02 1543.71 1077.02 1534.98 Q1077.02 1526.23 1080.07 1521.65 Q1083.15 1517.04 1088.96 1517.04 Z" fill="#000000" fill-rule="nonzero" fill-opacity="1" /><path clip-path="url(#clip180)" d="M1102.71 1524.23 L1102.71 1520.77 Q1104.14 1521.45 1105.61 1521.81 Q1107.07 1522.16 1108.48 1522.16 Q1112.25 1522.16 1114.22 1519.64 Q1116.21 1517.1 1116.5 1511.95 Q1115.41 1513.57 1113.73 1514.43 Q1112.06 1515.3 1110.03 1515.3 Q1105.81 1515.3 1103.35 1512.76 Q1100.9 1510.2 1100.9 1505.78 Q1100.9 1501.46 1103.46 1498.84 Q1106.02 1496.23 1110.27 1496.23 Q1115.14 1496.23 1117.7 1499.97 Q1120.28 1503.69 1120.28 1510.8 Q1120.28 1517.44 1117.12 1521.41 Q1113.98 1525.36 1108.65 1525.36 Q1107.22 1525.36 1105.76 1525.08 Q1104.29 1524.8 1102.71 1524.23 M1110.27 1512.33 Q1112.83 1512.33 1114.31 1510.58 Q1115.82 1508.83 1115.82 1505.78 Q1115.82 1502.75 1114.31 1501 Q1112.83 1499.24 1110.27 1499.24 Q1107.71 1499.24 1106.21 1501 Q1104.72 1502.75 1104.72 1505.78 Q1104.72 1508.83 1106.21 1510.58 Q1107.71 1512.33 1110.27 1512.33 Z" fill="#000000" fill-rule="nonzero" fill-opacity="1" /><path clip-path="url(#clip180)" d="M1330.27 1533.59 Q1333.63 1534.31 1335.5 1536.58 Q1337.4 1538.85 1337.4 1542.18 Q1337.4 1547.29 1333.88 1550.1 Q1330.36 1552.9 1323.88 1552.9 Q1321.7 1552.9 1319.39 1552.46 Q1317.1 1552.04 1314.64 1551.18 L1314.64 1546.67 Q1316.59 1547.8 1318.9 1548.38 Q1321.22 1548.96 1323.74 1548.96 Q1328.14 1548.96 1330.43 1547.22 Q1332.75 1545.49 1332.75 1542.18 Q1332.75 1539.12 1330.59 1537.41 Q1328.46 1535.67 1324.64 1535.67 L1320.62 1535.67 L1320.62 1531.83 L1324.83 1531.83 Q1328.28 1531.83 1330.11 1530.47 Q1331.94 1529.08 1331.94 1526.48 Q1331.94 1523.82 1330.04 1522.41 Q1328.16 1520.97 1324.64 1520.97 Q1322.72 1520.97 1320.52 1521.39 Q1318.32 1521.81 1315.69 1522.69 L1315.69 1518.52 Q1318.35 1517.78 1320.66 1517.41 Q1323 1517.04 1325.06 1517.04 Q1330.38 1517.04 1333.49 1519.47 Q1336.59 1521.88 1336.59 1526 Q1336.59 1528.87 1334.95 1530.86 Q1333.3 1532.83 1330.27 1533.59 Z" fill="#000000" fill-rule="nonzero" fill-opacity="1" /><path clip-path="url(#clip180)" d="M1346.26 1546.35 L1351.15 1546.35 L1351.15 1552.22 L1346.26 1552.22 L1346.26 1546.35 Z" fill="#000000" fill-rule="nonzero" fill-opacity="1" /><path clip-path="url(#clip180)" d="M1371.33 1520.74 Q1367.72 1520.74 1365.89 1524.31 Q1364.09 1527.85 1364.09 1534.98 Q1364.09 1542.09 1365.89 1545.65 Q1367.72 1549.19 1371.33 1549.19 Q1374.97 1549.19 1376.77 1545.65 Q1378.6 1542.09 1378.6 1534.98 Q1378.6 1527.85 1376.77 1524.31 Q1374.97 1520.74 1371.33 1520.74 M1371.33 1517.04 Q1377.14 1517.04 1380.2 1521.65 Q1383.28 1526.23 1383.28 1534.98 Q1383.28 1543.71 1380.2 1548.31 Q1377.14 1552.9 1371.33 1552.9 Q1365.52 1552.9 1362.44 1548.31 Q1359.39 1543.71 1359.39 1534.98 Q1359.39 1526.23 1362.44 1521.65 Q1365.52 1517.04 1371.33 1517.04 Z" fill="#000000" fill-rule="nonzero" fill-opacity="1" /><path clip-path="url(#clip180)" d="M1419.67 1526.76 L1409.09 1537.39 L1419.67 1547.97 L1416.91 1550.77 L1406.29 1540.14 L1395.66 1550.77 L1392.93 1547.97 L1403.49 1537.39 L1392.93 1526.76 L1395.66 1523.96 L1406.29 1534.59 L1416.91 1523.96 L1419.67 1526.76 Z" fill="#000000" fill-rule="nonzero" fill-opacity="1" /><path clip-path="url(#clip180)" d="M1432.03 1548.29 L1439.67 1548.29 L1439.67 1521.92 L1431.36 1523.59 L1431.36 1519.33 L1439.62 1517.66 L1444.3 1517.66 L1444.3 1548.29 L1451.94 1548.29 L1451.94 1552.22 L1432.03 1552.22 L1432.03 1548.29 Z" fill="#000000" fill-rule="nonzero" fill-opacity="1" /><path clip-path="url(#clip180)" d="M1471.38 1520.74 Q1467.77 1520.74 1465.94 1524.31 Q1464.13 1527.85 1464.13 1534.98 Q1464.13 1542.09 1465.94 1545.65 Q1467.77 1549.19 1471.38 1549.19 Q1475.01 1549.19 1476.82 1545.65 Q1478.65 1542.09 1478.65 1534.98 Q1478.65 1527.85 1476.82 1524.31 Q1475.01 1520.74 1471.38 1520.74 M1471.38 1517.04 Q1477.19 1517.04 1480.25 1521.65 Q1483.32 1526.23 1483.32 1534.98 Q1483.32 1543.71 1480.25 1548.31 Q1477.19 1552.9 1471.38 1552.9 Q1465.57 1552.9 1462.49 1548.31 Q1459.44 1543.71 1459.44 1534.98 Q1459.44 1526.23 1462.49 1521.65 Q1465.57 1517.04 1471.38 1517.04 Z" fill="#000000" fill-rule="nonzero" fill-opacity="1" /><path clip-path="url(#clip180)" d="M1485.13 1524.23 L1485.13 1520.77 Q1486.56 1521.45 1488.03 1521.81 Q1489.49 1522.16 1490.9 1522.16 Q1494.66 1522.16 1496.64 1519.64 Q1498.63 1517.1 1498.92 1511.95 Q1497.82 1513.57 1496.15 1514.43 Q1494.48 1515.3 1492.45 1515.3 Q1488.23 1515.3 1485.77 1512.76 Q1483.32 1510.2 1483.32 1505.78 Q1483.32 1501.46 1485.88 1498.84 Q1488.44 1496.23 1492.69 1496.23 Q1497.56 1496.23 1500.12 1499.97 Q1502.7 1503.69 1502.7 1510.8 Q1502.7 1517.44 1499.54 1521.41 Q1496.4 1525.36 1491.07 1525.36 Q1489.64 1525.36 1488.18 1525.08 Q1486.71 1524.8 1485.13 1524.23 M1492.69 1512.33 Q1495.25 1512.33 1496.73 1510.58 Q1498.24 1508.83 1498.24 1505.78 Q1498.24 1502.75 1496.73 1501 Q1495.25 1499.24 1492.69 1499.24 Q1490.13 1499.24 1488.63 1501 Q1487.14 1502.75 1487.14 1505.78 Q1487.14 1508.83 1488.63 1510.58 Q1490.13 1512.33 1492.69 1512.33 Z" fill="#000000" fill-rule="nonzero" fill-opacity="1" /><path clip-path="url(#clip180)" d="M1712.09 1521.74 L1700.28 1540.19 L1712.09 1540.19 L1712.09 1521.74 M1710.86 1517.66 L1716.74 1517.66 L1716.74 1540.19 L1721.67 1540.19 L1721.67 1544.08 L1716.74 1544.08 L1716.74 1552.22 L1712.09 1552.22 L1712.09 1544.08 L1696.48 1544.08 L1696.48 1539.56 L1710.86 1517.66 Z" fill="#000000" fill-rule="nonzero" fill-opacity="1" /><path clip-path="url(#clip180)" d="M1729.4 1546.35 L1734.29 1546.35 L1734.29 1552.22 L1729.4 1552.22 L1729.4 1546.35 Z" fill="#000000" fill-rule="nonzero" fill-opacity="1" /><path clip-path="url(#clip180)" d="M1754.47 1520.74 Q1750.86 1520.74 1749.03 1524.31 Q1747.23 1527.85 1747.23 1534.98 Q1747.23 1542.09 1749.03 1545.65 Q1750.86 1549.19 1754.47 1549.19 Q1758.11 1549.19 1759.91 1545.65 Q1761.74 1542.09 1761.74 1534.98 Q1761.74 1527.85 1759.91 1524.31 Q1758.11 1520.74 1754.47 1520.74 M1754.47 1517.04 Q1760.28 1517.04 1763.34 1521.65 Q1766.42 1526.23 1766.42 1534.98 Q1766.42 1543.71 1763.34 1548.31 Q1760.28 1552.9 1754.47 1552.9 Q1748.66 1552.9 1745.58 1548.31 Q1742.53 1543.71 1742.53 1534.98 Q1742.53 1526.23 1745.58 1521.65 Q1748.66 1517.04 1754.47 1517.04 Z" fill="#000000" fill-rule="nonzero" fill-opacity="1" /><path clip-path="url(#clip180)" d="M1802.8 1526.76 L1792.23 1537.39 L1802.8 1547.97 L1800.05 1550.77 L1789.42 1540.14 L1778.8 1550.77 L1776.07 1547.97 L1786.62 1537.39 L1776.07 1526.76 L1778.8 1523.96 L1789.42 1534.59 L1800.05 1523.96 L1802.8 1526.76 Z" fill="#000000" fill-rule="nonzero" fill-opacity="1" /><path clip-path="url(#clip180)" d="M1815.16 1548.29 L1822.8 1548.29 L1822.8 1521.92 L1814.49 1523.59 L1814.49 1519.33 L1822.76 1517.66 L1827.43 1517.66 L1827.43 1548.29 L1835.07 1548.29 L1835.07 1552.22 L1815.16 1552.22 L1815.16 1548.29 Z" fill="#000000" fill-rule="nonzero" fill-opacity="1" /><path clip-path="url(#clip180)" d="M1854.52 1520.74 Q1850.91 1520.74 1849.08 1524.31 Q1847.27 1527.85 1847.27 1534.98 Q1847.27 1542.09 1849.08 1545.65 Q1850.91 1549.19 1854.52 1549.19 Q1858.15 1549.19 1859.96 1545.65 Q1861.79 1542.09 1861.79 1534.98 Q1861.79 1527.85 1859.96 1524.31 Q1858.15 1520.74 1854.52 1520.74 M1854.52 1517.04 Q1860.33 1517.04 1863.38 1521.65 Q1866.46 1526.23 1866.46 1534.98 Q1866.46 1543.71 1863.38 1548.31 Q1860.33 1552.9 1854.52 1552.9 Q1848.71 1552.9 1845.63 1548.31 Q1842.57 1543.71 1842.57 1534.98 Q1842.57 1526.23 1845.63 1521.65 Q1848.71 1517.04 1854.52 1517.04 Z" fill="#000000" fill-rule="nonzero" fill-opacity="1" /><path clip-path="url(#clip180)" d="M1868.27 1524.23 L1868.27 1520.77 Q1869.7 1521.45 1871.16 1521.81 Q1872.63 1522.16 1874.04 1522.16 Q1877.8 1522.16 1879.78 1519.64 Q1881.77 1517.1 1882.05 1511.95 Q1880.96 1513.57 1879.29 1514.43 Q1877.61 1515.3 1875.58 1515.3 Q1871.37 1515.3 1868.91 1512.76 Q1866.46 1510.2 1866.46 1505.78 Q1866.46 1501.46 1869.02 1498.84 Q1871.58 1496.23 1875.83 1496.23 Q1880.7 1496.23 1883.26 1499.97 Q1885.83 1503.69 1885.83 1510.8 Q1885.83 1517.44 1882.67 1521.41 Q1879.53 1525.36 1874.21 1525.36 Q1872.78 1525.36 1871.31 1525.08 Q1869.85 1524.8 1868.27 1524.23 M1875.83 1512.33 Q1878.39 1512.33 1879.87 1510.58 Q1881.38 1508.83 1881.38 1505.78 Q1881.38 1502.75 1879.87 1501 Q1878.39 1499.24 1875.83 1499.24 Q1873.27 1499.24 1871.76 1501 Q1870.28 1502.75 1870.28 1505.78 Q1870.28 1508.83 1871.76 1510.58 Q1873.27 1512.33 1875.83 1512.33 Z" fill="#000000" fill-rule="nonzero" fill-opacity="1" /><path clip-path="url(#clip180)" d="M2081.1 1517.66 L2099.46 1517.66 L2099.46 1521.6 L2085.39 1521.6 L2085.39 1530.07 Q2086.4 1529.72 2087.42 1529.56 Q2088.44 1529.38 2089.46 1529.38 Q2095.25 1529.38 2098.63 1532.55 Q2102.01 1535.72 2102.01 1541.14 Q2102.01 1546.72 2098.53 1549.82 Q2095.06 1552.9 2088.74 1552.9 Q2086.57 1552.9 2084.3 1552.53 Q2082.05 1552.16 2079.65 1551.41 L2079.65 1546.72 Q2081.73 1547.85 2083.95 1548.41 Q2086.17 1548.96 2088.65 1548.96 Q2092.65 1548.96 2094.99 1546.85 Q2097.33 1544.75 2097.33 1541.14 Q2097.33 1537.53 2094.99 1535.42 Q2092.65 1533.31 2088.65 1533.31 Q2086.77 1533.31 2084.9 1533.73 Q2083.05 1534.15 2081.1 1535.03 L2081.1 1517.66 Z" fill="#000000" fill-rule="nonzero" fill-opacity="1" /><path clip-path="url(#clip180)" d="M2111.22 1546.35 L2116.1 1546.35 L2116.1 1552.22 L2111.22 1552.22 L2111.22 1546.35 Z" fill="#000000" fill-rule="nonzero" fill-opacity="1" /><path clip-path="url(#clip180)" d="M2136.29 1520.74 Q2132.68 1520.74 2130.85 1524.31 Q2129.04 1527.85 2129.04 1534.98 Q2129.04 1542.09 2130.85 1545.65 Q2132.68 1549.19 2136.29 1549.19 Q2139.92 1549.19 2141.73 1545.65 Q2143.56 1542.09 2143.56 1534.98 Q2143.56 1527.85 2141.73 1524.31 Q2139.92 1520.74 2136.29 1520.74 M2136.29 1517.04 Q2142.1 1517.04 2145.15 1521.65 Q2148.23 1526.23 2148.23 1534.98 Q2148.23 1543.71 2145.15 1548.31 Q2142.1 1552.9 2136.29 1552.9 Q2130.48 1552.9 2127.4 1548.31 Q2124.34 1543.71 2124.34 1534.98 Q2124.34 1526.23 2127.4 1521.65 Q2130.48 1517.04 2136.29 1517.04 Z" fill="#000000" fill-rule="nonzero" fill-opacity="1" /><path clip-path="url(#clip180)" d="M2184.62 1526.76 L2174.04 1537.39 L2184.62 1547.97 L2181.87 1550.77 L2171.24 1540.14 L2160.62 1550.77 L2157.89 1547.97 L2168.44 1537.39 L2157.89 1526.76 L2160.62 1523.96 L2171.24 1534.59 L2181.87 1523.96 L2184.62 1526.76 Z" fill="#000000" fill-rule="nonzero" fill-opacity="1" /><path clip-path="url(#clip180)" d="M2196.98 1548.29 L2204.62 1548.29 L2204.62 1521.92 L2196.31 1523.59 L2196.31 1519.33 L2204.58 1517.66 L2209.25 1517.66 L2209.25 1548.29 L2216.89 1548.29 L2216.89 1552.22 L2196.98 1552.22 L2196.98 1548.29 Z" fill="#000000" fill-rule="nonzero" fill-opacity="1" /><path clip-path="url(#clip180)" d="M2236.33 1520.74 Q2232.72 1520.74 2230.89 1524.31 Q2229.09 1527.85 2229.09 1534.98 Q2229.09 1542.09 2230.89 1545.65 Q2232.72 1549.19 2236.33 1549.19 Q2239.97 1549.19 2241.77 1545.65 Q2243.6 1542.09 2243.6 1534.98 Q2243.6 1527.85 2241.77 1524.31 Q2239.97 1520.74 2236.33 1520.74 M2236.33 1517.04 Q2242.14 1517.04 2245.2 1521.65 Q2248.28 1526.23 2248.28 1534.98 Q2248.28 1543.71 2245.2 1548.31 Q2242.14 1552.9 2236.33 1552.9 Q2230.52 1552.9 2227.45 1548.31 Q2224.39 1543.71 2224.39 1534.98 Q2224.39 1526.23 2227.45 1521.65 Q2230.52 1517.04 2236.33 1517.04 Z" fill="#000000" fill-rule="nonzero" fill-opacity="1" /><path clip-path="url(#clip180)" d="M2250.08 1524.23 L2250.08 1520.77 Q2251.51 1521.45 2252.98 1521.81 Q2254.45 1522.16 2255.86 1522.16 Q2259.62 1522.16 2261.59 1519.64 Q2263.59 1517.1 2263.87 1511.95 Q2262.78 1513.57 2261.11 1514.43 Q2259.43 1515.3 2257.4 1515.3 Q2253.19 1515.3 2250.72 1512.76 Q2248.28 1510.2 2248.28 1505.78 Q2248.28 1501.46 2250.84 1498.84 Q2253.39 1496.23 2257.64 1496.23 Q2262.52 1496.23 2265.07 1499.97 Q2267.65 1503.69 2267.65 1510.8 Q2267.65 1517.44 2264.49 1521.41 Q2261.35 1525.36 2256.03 1525.36 Q2254.6 1525.36 2253.13 1525.08 Q2251.66 1524.8 2250.08 1524.23 M2257.64 1512.33 Q2260.2 1512.33 2261.69 1510.58 Q2263.19 1508.83 2263.19 1505.78 Q2263.19 1502.75 2261.69 1501 Q2260.2 1499.24 2257.64 1499.24 Q2255.09 1499.24 2253.58 1501 Q2252.1 1502.75 2252.1 1505.78 Q2252.1 1508.83 2253.58 1510.58 Q2255.09 1512.33 2257.64 1512.33 Z" fill="#000000" fill-rule="nonzero" fill-opacity="1" /><polyline clip-path="url(#clip182)" style="stroke:#000000; stroke-linecap:round; stroke-linejoin:round; stroke-width:2; stroke-opacity:0.1; fill:none" points="139.469,1474.16 2352.76,1474.16 "/>
<polyline clip-path="url(#clip182)" style="stroke:#000000; stroke-linecap:round; stroke-linejoin:round; stroke-width:2; stroke-opacity:0.1; fill:none" points="139.469,1270.32 2352.76,1270.32 "/>
<polyline clip-path="url(#clip182)" style="stroke:#000000; stroke-linecap:round; stroke-linejoin:round; stroke-width:2; stroke-opacity:0.1; fill:none" points="139.469,1066.47 2352.76,1066.47 "/>
<polyline clip-path="url(#clip182)" style="stroke:#000000; stroke-linecap:round; stroke-linejoin:round; stroke-width:2; stroke-opacity:0.1; fill:none" points="139.469,862.627 2352.76,862.627 "/>
<polyline clip-path="url(#clip182)" style="stroke:#000000; stroke-linecap:round; stroke-linejoin:round; stroke-width:2; stroke-opacity:0.1; fill:none" points="139.469,658.781 2352.76,658.781 "/>
<polyline clip-path="url(#clip182)" style="stroke:#000000; stroke-linecap:round; stroke-linejoin:round; stroke-width:2; stroke-opacity:0.1; fill:none" points="139.469,454.936 2352.76,454.936 "/>
<polyline clip-path="url(#clip182)" style="stroke:#000000; stroke-linecap:round; stroke-linejoin:round; stroke-width:2; stroke-opacity:0.1; fill:none" points="139.469,251.09 2352.76,251.09 "/>
<polyline clip-path="url(#clip182)" style="stroke:#000000; stroke-linecap:round; stroke-linejoin:round; stroke-width:2; stroke-opacity:0.1; fill:none" points="139.469,47.2441 2352.76,47.2441 "/>
<polyline clip-path="url(#clip180)" style="stroke:#000000; stroke-linecap:round; stroke-linejoin:round; stroke-width:4; stroke-opacity:1; fill:none" points="139.469,1474.16 139.469,47.2441 "/>
<polyline clip-path="url(#clip180)" style="stroke:#000000; stroke-linecap:round; stroke-linejoin:round; stroke-width:4; stroke-opacity:1; fill:none" points="139.469,1474.16 158.366,1474.16 "/>
<polyline clip-path="url(#clip180)" style="stroke:#000000; stroke-linecap:round; stroke-linejoin:round; stroke-width:4; stroke-opacity:1; fill:none" points="139.469,1270.32 158.366,1270.32 "/>
<polyline clip-path="url(#clip180)" style="stroke:#000000; stroke-linecap:round; stroke-linejoin:round; stroke-width:4; stroke-opacity:1; fill:none" points="139.469,1066.47 158.366,1066.47 "/>
<polyline clip-path="url(#clip180)" style="stroke:#000000; stroke-linecap:round; stroke-linejoin:round; stroke-width:4; stroke-opacity:1; fill:none" points="139.469,862.627 158.366,862.627 "/>
<polyline clip-path="url(#clip180)" style="stroke:#000000; stroke-linecap:round; stroke-linejoin:round; stroke-width:4; stroke-opacity:1; fill:none" points="139.469,658.781 158.366,658.781 "/>
<polyline clip-path="url(#clip180)" style="stroke:#000000; stroke-linecap:round; stroke-linejoin:round; stroke-width:4; stroke-opacity:1; fill:none" points="139.469,454.936 158.366,454.936 "/>
<polyline clip-path="url(#clip180)" style="stroke:#000000; stroke-linecap:round; stroke-linejoin:round; stroke-width:4; stroke-opacity:1; fill:none" points="139.469,251.09 158.366,251.09 "/>
<polyline clip-path="url(#clip180)" style="stroke:#000000; stroke-linecap:round; stroke-linejoin:round; stroke-width:4; stroke-opacity:1; fill:none" points="139.469,47.2441 158.366,47.2441 "/>
<path clip-path="url(#clip180)" d="M91.5243 1459.96 Q87.9132 1459.96 86.0845 1463.53 Q84.279 1467.07 84.279 1474.2 Q84.279 1481.31 86.0845 1484.87 Q87.9132 1488.41 91.5243 1488.41 Q95.1586 1488.41 96.9641 1484.87 Q98.7928 1481.31 98.7928 1474.2 Q98.7928 1467.07 96.9641 1463.53 Q95.1586 1459.96 91.5243 1459.96 M91.5243 1456.26 Q97.3345 1456.26 100.39 1460.87 Q103.469 1465.45 103.469 1474.2 Q103.469 1482.93 100.39 1487.53 Q97.3345 1492.12 91.5243 1492.12 Q85.7142 1492.12 82.6355 1487.53 Q79.5799 1482.93 79.5799 1474.2 Q79.5799 1465.45 82.6355 1460.87 Q85.7142 1456.26 91.5243 1456.26 Z" fill="#000000" fill-rule="nonzero" fill-opacity="1" /><path clip-path="url(#clip180)" d="M96.3391 1268.96 Q99.6956 1269.68 101.571 1271.95 Q103.469 1274.22 103.469 1277.55 Q103.469 1282.67 99.9502 1285.47 Q96.4317 1288.27 89.9503 1288.27 Q87.7743 1288.27 85.4595 1287.83 Q83.1679 1287.41 80.7142 1286.56 L80.7142 1282.04 Q82.6586 1283.18 84.9734 1283.76 Q87.2882 1284.34 89.8114 1284.34 Q94.2095 1284.34 96.5011 1282.6 Q98.8159 1280.86 98.8159 1277.55 Q98.8159 1274.5 96.6632 1272.78 Q94.5336 1271.05 90.7141 1271.05 L86.6864 1271.05 L86.6864 1267.21 L90.8993 1267.21 Q94.3484 1267.21 96.1771 1265.84 Q98.0058 1264.45 98.0058 1261.86 Q98.0058 1259.2 96.1076 1257.78 Q94.2326 1256.35 90.7141 1256.35 Q88.7928 1256.35 86.5938 1256.77 Q84.3947 1257.18 81.7559 1258.06 L81.7559 1253.9 Q84.4179 1253.15 86.7327 1252.78 Q89.0706 1252.41 91.1308 1252.41 Q96.4548 1252.41 99.5567 1254.84 Q102.659 1257.25 102.659 1261.37 Q102.659 1264.24 101.015 1266.23 Q99.3715 1268.2 96.3391 1268.96 Z" fill="#000000" fill-rule="nonzero" fill-opacity="1" /><path clip-path="url(#clip180)" d="M91.941 1064.61 Q88.7928 1064.61 86.941 1066.76 Q85.1123 1068.92 85.1123 1072.67 Q85.1123 1076.39 86.941 1078.57 Q88.7928 1080.72 91.941 1080.72 Q95.0891 1080.72 96.9178 1078.57 Q98.7696 1076.39 98.7696 1072.67 Q98.7696 1068.92 96.9178 1066.76 Q95.0891 1064.61 91.941 1064.61 M101.223 1049.96 L101.223 1054.22 Q99.4641 1053.38 97.6585 1052.94 Q95.8761 1052.5 94.1169 1052.5 Q89.4873 1052.5 87.0336 1055.63 Q84.6031 1058.75 84.2558 1065.07 Q85.6216 1063.06 87.6817 1061.99 Q89.7419 1060.91 92.2188 1060.91 Q97.4271 1060.91 100.436 1064.08 Q103.469 1067.23 103.469 1072.67 Q103.469 1077.99 100.321 1081.21 Q97.1724 1084.42 91.941 1084.42 Q85.9456 1084.42 82.7744 1079.84 Q79.6031 1075.23 79.6031 1066.51 Q79.6031 1058.31 83.492 1053.45 Q87.3808 1048.57 93.9317 1048.57 Q95.691 1048.57 97.4734 1048.92 Q99.2789 1049.26 101.223 1049.96 Z" fill="#000000" fill-rule="nonzero" fill-opacity="1" /><path clip-path="url(#clip180)" d="M81.8484 879.19 L81.8484 874.93 Q83.6077 875.764 85.4132 876.204 Q87.2188 876.643 88.9549 876.643 Q93.5845 876.643 96.015 873.542 Q98.4687 870.417 98.8159 864.074 Q97.4734 866.065 95.4132 867.13 Q93.353 868.194 90.853 868.194 Q85.6679 868.194 82.6355 865.069 Q79.6262 861.921 79.6262 856.481 Q79.6262 851.157 82.7744 847.94 Q85.9225 844.722 91.1539 844.722 Q97.1493 844.722 100.297 849.329 Q103.469 853.912 103.469 862.662 Q103.469 870.833 99.5798 875.717 Q95.7141 880.579 89.1632 880.579 Q87.404 880.579 85.5984 880.231 Q83.7929 879.884 81.8484 879.19 M91.1539 864.537 Q94.3021 864.537 96.1308 862.384 Q97.9826 860.231 97.9826 856.481 Q97.9826 852.755 96.1308 850.602 Q94.3021 848.426 91.1539 848.426 Q88.0058 848.426 86.154 850.602 Q84.3253 852.755 84.3253 856.481 Q84.3253 860.231 86.154 862.384 Q88.0058 864.537 91.1539 864.537 Z" fill="#000000" fill-rule="nonzero" fill-opacity="1" /><path clip-path="url(#clip180)" d="M53.7699 672.126 L61.4087 672.126 L61.4087 645.761 L53.0986 647.427 L53.0986 643.168 L61.3624 641.501 L66.0383 641.501 L66.0383 672.126 L73.6772 672.126 L73.6772 676.061 L53.7699 676.061 L53.7699 672.126 Z" fill="#000000" fill-rule="nonzero" fill-opacity="1" /><path clip-path="url(#clip180)" d="M87.1493 672.126 L103.469 672.126 L103.469 676.061 L81.5244 676.061 L81.5244 672.126 Q84.1864 669.372 88.7697 664.742 Q93.3762 660.089 94.5567 658.747 Q96.8021 656.224 97.6817 654.488 Q98.5845 652.728 98.5845 651.038 Q98.5845 648.284 96.64 646.548 Q94.7187 644.812 91.6169 644.812 Q89.4178 644.812 86.9642 645.576 Q84.5336 646.339 81.7559 647.89 L81.7559 643.168 Q84.5799 642.034 87.0336 641.455 Q89.4873 640.876 91.5243 640.876 Q96.8947 640.876 100.089 643.562 Q103.284 646.247 103.284 650.738 Q103.284 652.867 102.473 654.788 Q101.686 656.687 99.5798 659.279 Q99.0011 659.95 95.8993 663.168 Q92.7975 666.362 87.1493 672.126 Z" fill="#000000" fill-rule="nonzero" fill-opacity="1" /><path clip-path="url(#clip180)" d="M53.168 468.281 L60.8069 468.281 L60.8069 441.915 L52.4967 443.582 L52.4967 439.322 L60.7606 437.656 L65.4365 437.656 L65.4365 468.281 L73.0753 468.281 L73.0753 472.216 L53.168 472.216 L53.168 468.281 Z" fill="#000000" fill-rule="nonzero" fill-opacity="1" /><path clip-path="url(#clip180)" d="M82.566 437.656 L100.922 437.656 L100.922 441.591 L86.8484 441.591 L86.8484 450.063 Q87.8669 449.716 88.8854 449.554 Q89.904 449.369 90.9225 449.369 Q96.7095 449.369 100.089 452.54 Q103.469 455.711 103.469 461.128 Q103.469 466.706 99.9965 469.808 Q96.5243 472.887 90.2049 472.887 Q88.029 472.887 85.7605 472.517 Q83.5151 472.146 81.1077 471.406 L81.1077 466.706 Q83.191 467.841 85.4132 468.396 Q87.6354 468.952 90.1123 468.952 Q94.1169 468.952 96.4548 466.845 Q98.7928 464.739 98.7928 461.128 Q98.7928 457.517 96.4548 455.41 Q94.1169 453.304 90.1123 453.304 Q88.2373 453.304 86.3623 453.72 Q84.5105 454.137 82.566 455.017 L82.566 437.656 Z" fill="#000000" fill-rule="nonzero" fill-opacity="1" /><path clip-path="url(#clip180)" d="M52.2653 264.435 L59.9041 264.435 L59.9041 238.069 L51.594 239.736 L51.594 235.477 L59.8578 233.81 L64.5337 233.81 L64.5337 264.435 L72.1726 264.435 L72.1726 268.37 L52.2653 268.37 L52.2653 264.435 Z" fill="#000000" fill-rule="nonzero" fill-opacity="1" /><path clip-path="url(#clip180)" d="M91.6169 251.958 Q88.2836 251.958 86.3623 253.74 Q84.4642 255.523 84.4642 258.648 Q84.4642 261.773 86.3623 263.555 Q88.2836 265.338 91.6169 265.338 Q94.9502 265.338 96.8715 263.555 Q98.7928 261.75 98.7928 258.648 Q98.7928 255.523 96.8715 253.74 Q94.9734 251.958 91.6169 251.958 M86.941 249.967 Q83.9318 249.226 82.242 247.166 Q80.5753 245.106 80.5753 242.143 Q80.5753 238 83.5151 235.592 Q86.478 233.185 91.6169 233.185 Q96.7789 233.185 99.7187 235.592 Q102.659 238 102.659 242.143 Q102.659 245.106 100.969 247.166 Q99.3021 249.226 96.316 249.967 Q99.6956 250.754 101.571 253.046 Q103.469 255.338 103.469 258.648 Q103.469 263.671 100.39 266.356 Q97.3345 269.041 91.6169 269.041 Q85.8993 269.041 82.8207 266.356 Q79.7651 263.671 79.7651 258.648 Q79.7651 255.338 81.6633 253.046 Q83.5614 250.754 86.941 249.967 M85.2281 242.583 Q85.2281 245.268 86.8947 246.773 Q88.5845 248.277 91.6169 248.277 Q94.6262 248.277 96.316 246.773 Q98.0289 245.268 98.0289 242.583 Q98.0289 239.898 96.316 238.393 Q94.6262 236.889 91.6169 236.889 Q88.5845 236.889 86.8947 238.393 Q85.2281 239.898 85.2281 242.583 Z" fill="#000000" fill-rule="nonzero" fill-opacity="1" /><path clip-path="url(#clip180)" d="M56.6171 60.5889 L72.9365 60.5889 L72.9365 64.5241 L50.9921 64.5241 L50.9921 60.5889 Q53.6541 57.8343 58.2375 53.2047 Q62.8439 48.552 64.0245 47.2094 Q66.2698 44.6862 67.1494 42.9501 Q68.0522 41.1909 68.0522 39.5011 Q68.0522 36.7465 66.1078 35.0104 Q64.1865 33.2743 61.0847 33.2743 Q58.8856 33.2743 56.4319 34.0381 Q54.0014 34.802 51.2236 36.3529 L51.2236 31.6308 Q54.0477 30.4965 56.5014 29.9178 Q58.955 29.3391 60.9921 29.3391 Q66.3624 29.3391 69.5568 32.0243 Q72.7513 34.7094 72.7513 39.2002 Q72.7513 41.3298 71.9411 43.2511 Q71.1541 45.1492 69.0476 47.7418 Q68.4689 48.4131 65.367 51.6306 Q62.2652 54.8251 56.6171 60.5889 Z" fill="#000000" fill-rule="nonzero" fill-opacity="1" /><path clip-path="url(#clip180)" d="M83.5614 60.5889 L91.2002 60.5889 L91.2002 34.2233 L82.8901 35.89 L82.8901 31.6308 L91.1539 29.9641 L95.8298 29.9641 L95.8298 60.5889 L103.469 60.5889 L103.469 64.5241 L83.5614 64.5241 L83.5614 60.5889 Z" fill="#000000" fill-rule="nonzero" fill-opacity="1" /><path clip-path="url(#clip182)" d="M261.203 47.2441 L261.203 1474.16 L280.328 1474.16 L280.328 47.2441 L261.203 47.2441 L261.203 47.2441  Z" fill="#009af9" fill-rule="evenodd" fill-opacity="1"/>
<polyline clip-path="url(#clip182)" style="stroke:#000000; stroke-linecap:round; stroke-linejoin:round; stroke-width:4; stroke-opacity:1; fill:none" points="261.203,47.2441 261.203,1474.16 280.328,1474.16 280.328,47.2441 261.203,47.2441 "/>
<path clip-path="url(#clip182)" d="M280.328 1202.37 L280.328 1474.16 L299.452 1474.16 L299.452 1202.37 L280.328 1202.37 L280.328 1202.37  Z" fill="#009af9" fill-rule="evenodd" fill-opacity="1"/>
<polyline clip-path="url(#clip182)" style="stroke:#000000; stroke-linecap:round; stroke-linejoin:round; stroke-width:4; stroke-opacity:1; fill:none" points="280.328,1202.37 280.328,1474.16 299.452,1474.16 299.452,1202.37 280.328,1202.37 "/>
<path clip-path="url(#clip182)" d="M299.452 1338.27 L299.452 1474.16 L318.577 1474.16 L318.577 1338.27 L299.452 1338.27 L299.452 1338.27  Z" fill="#009af9" fill-rule="evenodd" fill-opacity="1"/>
<polyline clip-path="url(#clip182)" style="stroke:#000000; stroke-linecap:round; stroke-linejoin:round; stroke-width:4; stroke-opacity:1; fill:none" points="299.452,1338.27 299.452,1474.16 318.577,1474.16 318.577,1338.27 299.452,1338.27 "/>
<path clip-path="url(#clip182)" d="M318.577 1270.32 L318.577 1474.16 L337.701 1474.16 L337.701 1270.32 L318.577 1270.32 L318.577 1270.32  Z" fill="#009af9" fill-rule="evenodd" fill-opacity="1"/>
<polyline clip-path="url(#clip182)" style="stroke:#000000; stroke-linecap:round; stroke-linejoin:round; stroke-width:4; stroke-opacity:1; fill:none" points="318.577,1270.32 318.577,1474.16 337.701,1474.16 337.701,1270.32 318.577,1270.32 "/>
<path clip-path="url(#clip182)" d="M337.701 1406.22 L337.701 1474.16 L356.826 1474.16 L356.826 1406.22 L337.701 1406.22 L337.701 1406.22  Z" fill="#009af9" fill-rule="evenodd" fill-opacity="1"/>
<polyline clip-path="url(#clip182)" style="stroke:#000000; stroke-linecap:round; stroke-linejoin:round; stroke-width:4; stroke-opacity:1; fill:none" points="337.701,1406.22 337.701,1474.16 356.826,1474.16 356.826,1406.22 337.701,1406.22 "/>
<path clip-path="url(#clip182)" d="M356.826 1338.27 L356.826 1474.16 L375.95 1474.16 L375.95 1338.27 L356.826 1338.27 L356.826 1338.27  Z" fill="#009af9" fill-rule="evenodd" fill-opacity="1"/>
<polyline clip-path="url(#clip182)" style="stroke:#000000; stroke-linecap:round; stroke-linejoin:round; stroke-width:4; stroke-opacity:1; fill:none" points="356.826,1338.27 356.826,1474.16 375.95,1474.16 375.95,1338.27 356.826,1338.27 "/>
<path clip-path="url(#clip182)" d="M375.95 1406.22 L375.95 1474.16 L395.075 1474.16 L395.075 1406.22 L375.95 1406.22 L375.95 1406.22  Z" fill="#009af9" fill-rule="evenodd" fill-opacity="1"/>
<polyline clip-path="url(#clip182)" style="stroke:#000000; stroke-linecap:round; stroke-linejoin:round; stroke-width:4; stroke-opacity:1; fill:none" points="375.95,1406.22 375.95,1474.16 395.075,1474.16 395.075,1406.22 375.95,1406.22 "/>
<path clip-path="url(#clip182)" d="M395.075 1338.27 L395.075 1474.16 L414.199 1474.16 L414.199 1338.27 L395.075 1338.27 L395.075 1338.27  Z" fill="#009af9" fill-rule="evenodd" fill-opacity="1"/>
<polyline clip-path="url(#clip182)" style="stroke:#000000; stroke-linecap:round; stroke-linejoin:round; stroke-width:4; stroke-opacity:1; fill:none" points="395.075,1338.27 395.075,1474.16 414.199,1474.16 414.199,1338.27 395.075,1338.27 "/>
<path clip-path="url(#clip182)" d="M414.199 1406.22 L414.199 1474.16 L433.323 1474.16 L433.323 1406.22 L414.199 1406.22 L414.199 1406.22  Z" fill="#009af9" fill-rule="evenodd" fill-opacity="1"/>
<polyline clip-path="url(#clip182)" style="stroke:#000000; stroke-linecap:round; stroke-linejoin:round; stroke-width:4; stroke-opacity:1; fill:none" points="414.199,1406.22 414.199,1474.16 433.323,1474.16 433.323,1406.22 414.199,1406.22 "/>
<path clip-path="url(#clip182)" d="M433.323 1406.22 L433.323 1474.16 L452.448 1474.16 L452.448 1406.22 L433.323 1406.22 L433.323 1406.22  Z" fill="#009af9" fill-rule="evenodd" fill-opacity="1"/>
<polyline clip-path="url(#clip182)" style="stroke:#000000; stroke-linecap:round; stroke-linejoin:round; stroke-width:4; stroke-opacity:1; fill:none" points="433.323,1406.22 433.323,1474.16 452.448,1474.16 452.448,1406.22 433.323,1406.22 "/>
<path clip-path="url(#clip182)" d="M452.448 1406.22 L452.448 1474.16 L471.572 1474.16 L471.572 1406.22 L452.448 1406.22 L452.448 1406.22  Z" fill="#009af9" fill-rule="evenodd" fill-opacity="1"/>
<polyline clip-path="url(#clip182)" style="stroke:#000000; stroke-linecap:round; stroke-linejoin:round; stroke-width:4; stroke-opacity:1; fill:none" points="452.448,1406.22 452.448,1474.16 471.572,1474.16 471.572,1406.22 452.448,1406.22 "/>
<path clip-path="url(#clip182)" d="M471.572 1406.22 L471.572 1474.16 L490.697 1474.16 L490.697 1406.22 L471.572 1406.22 L471.572 1406.22  Z" fill="#009af9" fill-rule="evenodd" fill-opacity="1"/>
<polyline clip-path="url(#clip182)" style="stroke:#000000; stroke-linecap:round; stroke-linejoin:round; stroke-width:4; stroke-opacity:1; fill:none" points="471.572,1406.22 471.572,1474.16 490.697,1474.16 490.697,1406.22 471.572,1406.22 "/>
<path clip-path="url(#clip182)" d="M490.697 1406.22 L490.697 1474.16 L509.821 1474.16 L509.821 1406.22 L490.697 1406.22 L490.697 1406.22  Z" fill="#009af9" fill-rule="evenodd" fill-opacity="1"/>
<polyline clip-path="url(#clip182)" style="stroke:#000000; stroke-linecap:round; stroke-linejoin:round; stroke-width:4; stroke-opacity:1; fill:none" points="490.697,1406.22 490.697,1474.16 509.821,1474.16 509.821,1406.22 490.697,1406.22 "/>
<path clip-path="url(#clip182)" d="M509.821 1406.22 L509.821 1474.16 L528.946 1474.16 L528.946 1406.22 L509.821 1406.22 L509.821 1406.22  Z" fill="#009af9" fill-rule="evenodd" fill-opacity="1"/>
<polyline clip-path="url(#clip182)" style="stroke:#000000; stroke-linecap:round; stroke-linejoin:round; stroke-width:4; stroke-opacity:1; fill:none" points="509.821,1406.22 509.821,1474.16 528.946,1474.16 528.946,1406.22 509.821,1406.22 "/>
<path clip-path="url(#clip182)" d="M528.946 1406.22 L528.946 1474.16 L548.07 1474.16 L548.07 1406.22 L528.946 1406.22 L528.946 1406.22  Z" fill="#009af9" fill-rule="evenodd" fill-opacity="1"/>
<polyline clip-path="url(#clip182)" style="stroke:#000000; stroke-linecap:round; stroke-linejoin:round; stroke-width:4; stroke-opacity:1; fill:none" points="528.946,1406.22 528.946,1474.16 548.07,1474.16 548.07,1406.22 528.946,1406.22 "/>
<path clip-path="url(#clip182)" d="M548.07 1474.16 L548.07 1474.16 L567.195 1474.16 L567.195 1474.16 L548.07 1474.16 L548.07 1474.16  Z" fill="#009af9" fill-rule="evenodd" fill-opacity="1"/>
<polyline clip-path="url(#clip182)" style="stroke:#000000; stroke-linecap:round; stroke-linejoin:round; stroke-width:4; stroke-opacity:1; fill:none" points="548.07,1474.16 548.07,1474.16 567.195,1474.16 548.07,1474.16 "/>
<path clip-path="url(#clip182)" d="M567.195 1406.22 L567.195 1474.16 L586.319 1474.16 L586.319 1406.22 L567.195 1406.22 L567.195 1406.22  Z" fill="#009af9" fill-rule="evenodd" fill-opacity="1"/>
<polyline clip-path="url(#clip182)" style="stroke:#000000; stroke-linecap:round; stroke-linejoin:round; stroke-width:4; stroke-opacity:1; fill:none" points="567.195,1406.22 567.195,1474.16 586.319,1474.16 586.319,1406.22 567.195,1406.22 "/>
<path clip-path="url(#clip182)" d="M586.319 1406.22 L586.319 1474.16 L605.443 1474.16 L605.443 1406.22 L586.319 1406.22 L586.319 1406.22  Z" fill="#009af9" fill-rule="evenodd" fill-opacity="1"/>
<polyline clip-path="url(#clip182)" style="stroke:#000000; stroke-linecap:round; stroke-linejoin:round; stroke-width:4; stroke-opacity:1; fill:none" points="586.319,1406.22 586.319,1474.16 605.443,1474.16 605.443,1406.22 586.319,1406.22 "/>
<path clip-path="url(#clip182)" d="M605.443 1406.22 L605.443 1474.16 L624.568 1474.16 L624.568 1406.22 L605.443 1406.22 L605.443 1406.22  Z" fill="#009af9" fill-rule="evenodd" fill-opacity="1"/>
<polyline clip-path="url(#clip182)" style="stroke:#000000; stroke-linecap:round; stroke-linejoin:round; stroke-width:4; stroke-opacity:1; fill:none" points="605.443,1406.22 605.443,1474.16 624.568,1474.16 624.568,1406.22 605.443,1406.22 "/>
<path clip-path="url(#clip182)" d="M624.568 1474.16 L624.568 1474.16 L643.692 1474.16 L643.692 1474.16 L624.568 1474.16 L624.568 1474.16  Z" fill="#009af9" fill-rule="evenodd" fill-opacity="1"/>
<polyline clip-path="url(#clip182)" style="stroke:#000000; stroke-linecap:round; stroke-linejoin:round; stroke-width:4; stroke-opacity:1; fill:none" points="624.568,1474.16 624.568,1474.16 643.692,1474.16 624.568,1474.16 "/>
<path clip-path="url(#clip182)" d="M643.692 1406.22 L643.692 1474.16 L662.817 1474.16 L662.817 1406.22 L643.692 1406.22 L643.692 1406.22  Z" fill="#009af9" fill-rule="evenodd" fill-opacity="1"/>
<polyline clip-path="url(#clip182)" style="stroke:#000000; stroke-linecap:round; stroke-linejoin:round; stroke-width:4; stroke-opacity:1; fill:none" points="643.692,1406.22 643.692,1474.16 662.817,1474.16 662.817,1406.22 643.692,1406.22 "/>
<path clip-path="url(#clip182)" d="M662.817 1406.22 L662.817 1474.16 L681.941 1474.16 L681.941 1406.22 L662.817 1406.22 L662.817 1406.22  Z" fill="#009af9" fill-rule="evenodd" fill-opacity="1"/>
<polyline clip-path="url(#clip182)" style="stroke:#000000; stroke-linecap:round; stroke-linejoin:round; stroke-width:4; stroke-opacity:1; fill:none" points="662.817,1406.22 662.817,1474.16 681.941,1474.16 681.941,1406.22 662.817,1406.22 "/>
<path clip-path="url(#clip182)" d="M681.941 1474.16 L681.941 1474.16 L701.066 1474.16 L701.066 1474.16 L681.941 1474.16 L681.941 1474.16  Z" fill="#009af9" fill-rule="evenodd" fill-opacity="1"/>
<polyline clip-path="url(#clip182)" style="stroke:#000000; stroke-linecap:round; stroke-linejoin:round; stroke-width:4; stroke-opacity:1; fill:none" points="681.941,1474.16 681.941,1474.16 701.066,1474.16 681.941,1474.16 "/>
<path clip-path="url(#clip182)" d="M701.066 1406.22 L701.066 1474.16 L720.19 1474.16 L720.19 1406.22 L701.066 1406.22 L701.066 1406.22  Z" fill="#009af9" fill-rule="evenodd" fill-opacity="1"/>
<polyline clip-path="url(#clip182)" style="stroke:#000000; stroke-linecap:round; stroke-linejoin:round; stroke-width:4; stroke-opacity:1; fill:none" points="701.066,1406.22 701.066,1474.16 720.19,1474.16 720.19,1406.22 701.066,1406.22 "/>
<path clip-path="url(#clip182)" d="M720.19 1406.22 L720.19 1474.16 L739.315 1474.16 L739.315 1406.22 L720.19 1406.22 L720.19 1406.22  Z" fill="#009af9" fill-rule="evenodd" fill-opacity="1"/>
<polyline clip-path="url(#clip182)" style="stroke:#000000; stroke-linecap:round; stroke-linejoin:round; stroke-width:4; stroke-opacity:1; fill:none" points="720.19,1406.22 720.19,1474.16 739.315,1474.16 739.315,1406.22 720.19,1406.22 "/>
<path clip-path="url(#clip182)" d="M739.315 1474.16 L739.315 1474.16 L758.439 1474.16 L758.439 1474.16 L739.315 1474.16 L739.315 1474.16  Z" fill="#009af9" fill-rule="evenodd" fill-opacity="1"/>
<polyline clip-path="url(#clip182)" style="stroke:#000000; stroke-linecap:round; stroke-linejoin:round; stroke-width:4; stroke-opacity:1; fill:none" points="739.315,1474.16 739.315,1474.16 758.439,1474.16 739.315,1474.16 "/>
<path clip-path="url(#clip182)" d="M758.439 1406.22 L758.439 1474.16 L777.563 1474.16 L777.563 1406.22 L758.439 1406.22 L758.439 1406.22  Z" fill="#009af9" fill-rule="evenodd" fill-opacity="1"/>
<polyline clip-path="url(#clip182)" style="stroke:#000000; stroke-linecap:round; stroke-linejoin:round; stroke-width:4; stroke-opacity:1; fill:none" points="758.439,1406.22 758.439,1474.16 777.563,1474.16 777.563,1406.22 758.439,1406.22 "/>
<path clip-path="url(#clip182)" d="M777.563 1474.16 L777.563 1474.16 L796.688 1474.16 L796.688 1474.16 L777.563 1474.16 L777.563 1474.16  Z" fill="#009af9" fill-rule="evenodd" fill-opacity="1"/>
<polyline clip-path="url(#clip182)" style="stroke:#000000; stroke-linecap:round; stroke-linejoin:round; stroke-width:4; stroke-opacity:1; fill:none" points="777.563,1474.16 777.563,1474.16 796.688,1474.16 777.563,1474.16 "/>
<path clip-path="url(#clip182)" d="M796.688 1406.22 L796.688 1474.16 L815.812 1474.16 L815.812 1406.22 L796.688 1406.22 L796.688 1406.22  Z" fill="#009af9" fill-rule="evenodd" fill-opacity="1"/>
<polyline clip-path="url(#clip182)" style="stroke:#000000; stroke-linecap:round; stroke-linejoin:round; stroke-width:4; stroke-opacity:1; fill:none" points="796.688,1406.22 796.688,1474.16 815.812,1474.16 815.812,1406.22 796.688,1406.22 "/>
<path clip-path="url(#clip182)" d="M815.812 1406.22 L815.812 1474.16 L834.937 1474.16 L834.937 1406.22 L815.812 1406.22 L815.812 1406.22  Z" fill="#009af9" fill-rule="evenodd" fill-opacity="1"/>
<polyline clip-path="url(#clip182)" style="stroke:#000000; stroke-linecap:round; stroke-linejoin:round; stroke-width:4; stroke-opacity:1; fill:none" points="815.812,1406.22 815.812,1474.16 834.937,1474.16 834.937,1406.22 815.812,1406.22 "/>
<path clip-path="url(#clip182)" d="M834.937 1474.16 L834.937 1474.16 L854.061 1474.16 L854.061 1474.16 L834.937 1474.16 L834.937 1474.16  Z" fill="#009af9" fill-rule="evenodd" fill-opacity="1"/>
<polyline clip-path="url(#clip182)" style="stroke:#000000; stroke-linecap:round; stroke-linejoin:round; stroke-width:4; stroke-opacity:1; fill:none" points="834.937,1474.16 834.937,1474.16 854.061,1474.16 834.937,1474.16 "/>
<path clip-path="url(#clip182)" d="M854.061 1406.22 L854.061 1474.16 L873.186 1474.16 L873.186 1406.22 L854.061 1406.22 L854.061 1406.22  Z" fill="#009af9" fill-rule="evenodd" fill-opacity="1"/>
<polyline clip-path="url(#clip182)" style="stroke:#000000; stroke-linecap:round; stroke-linejoin:round; stroke-width:4; stroke-opacity:1; fill:none" points="854.061,1406.22 854.061,1474.16 873.186,1474.16 873.186,1406.22 854.061,1406.22 "/>
<path clip-path="url(#clip182)" d="M873.186 1474.16 L873.186 1474.16 L892.31 1474.16 L892.31 1474.16 L873.186 1474.16 L873.186 1474.16  Z" fill="#009af9" fill-rule="evenodd" fill-opacity="1"/>
<polyline clip-path="url(#clip182)" style="stroke:#000000; stroke-linecap:round; stroke-linejoin:round; stroke-width:4; stroke-opacity:1; fill:none" points="873.186,1474.16 873.186,1474.16 892.31,1474.16 873.186,1474.16 "/>
<path clip-path="url(#clip182)" d="M892.31 1406.22 L892.31 1474.16 L911.435 1474.16 L911.435 1406.22 L892.31 1406.22 L892.31 1406.22  Z" fill="#009af9" fill-rule="evenodd" fill-opacity="1"/>
<polyline clip-path="url(#clip182)" style="stroke:#000000; stroke-linecap:round; stroke-linejoin:round; stroke-width:4; stroke-opacity:1; fill:none" points="892.31,1406.22 892.31,1474.16 911.435,1474.16 911.435,1406.22 892.31,1406.22 "/>
<path clip-path="url(#clip182)" d="M911.435 1474.16 L911.435 1474.16 L930.559 1474.16 L930.559 1474.16 L911.435 1474.16 L911.435 1474.16  Z" fill="#009af9" fill-rule="evenodd" fill-opacity="1"/>
<polyline clip-path="url(#clip182)" style="stroke:#000000; stroke-linecap:round; stroke-linejoin:round; stroke-width:4; stroke-opacity:1; fill:none" points="911.435,1474.16 911.435,1474.16 930.559,1474.16 911.435,1474.16 "/>
<path clip-path="url(#clip182)" d="M930.559 1406.22 L930.559 1474.16 L949.683 1474.16 L949.683 1406.22 L930.559 1406.22 L930.559 1406.22  Z" fill="#009af9" fill-rule="evenodd" fill-opacity="1"/>
<polyline clip-path="url(#clip182)" style="stroke:#000000; stroke-linecap:round; stroke-linejoin:round; stroke-width:4; stroke-opacity:1; fill:none" points="930.559,1406.22 930.559,1474.16 949.683,1474.16 949.683,1406.22 930.559,1406.22 "/>
<path clip-path="url(#clip182)" d="M949.683 1474.16 L949.683 1474.16 L968.808 1474.16 L968.808 1474.16 L949.683 1474.16 L949.683 1474.16  Z" fill="#009af9" fill-rule="evenodd" fill-opacity="1"/>
<polyline clip-path="url(#clip182)" style="stroke:#000000; stroke-linecap:round; stroke-linejoin:round; stroke-width:4; stroke-opacity:1; fill:none" points="949.683,1474.16 949.683,1474.16 968.808,1474.16 949.683,1474.16 "/>
<path clip-path="url(#clip182)" d="M968.808 1406.22 L968.808 1474.16 L987.932 1474.16 L987.932 1406.22 L968.808 1406.22 L968.808 1406.22  Z" fill="#009af9" fill-rule="evenodd" fill-opacity="1"/>
<polyline clip-path="url(#clip182)" style="stroke:#000000; stroke-linecap:round; stroke-linejoin:round; stroke-width:4; stroke-opacity:1; fill:none" points="968.808,1406.22 968.808,1474.16 987.932,1474.16 987.932,1406.22 968.808,1406.22 "/>
<path clip-path="url(#clip182)" d="M987.932 1474.16 L987.932 1474.16 L1007.06 1474.16 L1007.06 1474.16 L987.932 1474.16 L987.932 1474.16  Z" fill="#009af9" fill-rule="evenodd" fill-opacity="1"/>
<polyline clip-path="url(#clip182)" style="stroke:#000000; stroke-linecap:round; stroke-linejoin:round; stroke-width:4; stroke-opacity:1; fill:none" points="987.932,1474.16 987.932,1474.16 1007.06,1474.16 987.932,1474.16 "/>
<path clip-path="url(#clip182)" d="M1007.06 1406.22 L1007.06 1474.16 L1026.18 1474.16 L1026.18 1406.22 L1007.06 1406.22 L1007.06 1406.22  Z" fill="#009af9" fill-rule="evenodd" fill-opacity="1"/>
<polyline clip-path="url(#clip182)" style="stroke:#000000; stroke-linecap:round; stroke-linejoin:round; stroke-width:4; stroke-opacity:1; fill:none" points="1007.06,1406.22 1007.06,1474.16 1026.18,1474.16 1026.18,1406.22 1007.06,1406.22 "/>
<path clip-path="url(#clip182)" d="M1026.18 1474.16 L1026.18 1474.16 L1045.31 1474.16 L1045.31 1474.16 L1026.18 1474.16 L1026.18 1474.16  Z" fill="#009af9" fill-rule="evenodd" fill-opacity="1"/>
<polyline clip-path="url(#clip182)" style="stroke:#000000; stroke-linecap:round; stroke-linejoin:round; stroke-width:4; stroke-opacity:1; fill:none" points="1026.18,1474.16 1026.18,1474.16 1045.31,1474.16 1026.18,1474.16 "/>
<path clip-path="url(#clip182)" d="M1045.31 1406.22 L1045.31 1474.16 L1064.43 1474.16 L1064.43 1406.22 L1045.31 1406.22 L1045.31 1406.22  Z" fill="#009af9" fill-rule="evenodd" fill-opacity="1"/>
<polyline clip-path="url(#clip182)" style="stroke:#000000; stroke-linecap:round; stroke-linejoin:round; stroke-width:4; stroke-opacity:1; fill:none" points="1045.31,1406.22 1045.31,1474.16 1064.43,1474.16 1064.43,1406.22 1045.31,1406.22 "/>
<path clip-path="url(#clip182)" d="M1064.43 1474.16 L1064.43 1474.16 L1083.55 1474.16 L1083.55 1474.16 L1064.43 1474.16 L1064.43 1474.16  Z" fill="#009af9" fill-rule="evenodd" fill-opacity="1"/>
<polyline clip-path="url(#clip182)" style="stroke:#000000; stroke-linecap:round; stroke-linejoin:round; stroke-width:4; stroke-opacity:1; fill:none" points="1064.43,1474.16 1064.43,1474.16 1083.55,1474.16 1064.43,1474.16 "/>
<path clip-path="url(#clip182)" d="M1083.55 1406.22 L1083.55 1474.16 L1102.68 1474.16 L1102.68 1406.22 L1083.55 1406.22 L1083.55 1406.22  Z" fill="#009af9" fill-rule="evenodd" fill-opacity="1"/>
<polyline clip-path="url(#clip182)" style="stroke:#000000; stroke-linecap:round; stroke-linejoin:round; stroke-width:4; stroke-opacity:1; fill:none" points="1083.55,1406.22 1083.55,1474.16 1102.68,1474.16 1102.68,1406.22 1083.55,1406.22 "/>
<path clip-path="url(#clip182)" d="M1102.68 1474.16 L1102.68 1474.16 L1121.8 1474.16 L1121.8 1474.16 L1102.68 1474.16 L1102.68 1474.16  Z" fill="#009af9" fill-rule="evenodd" fill-opacity="1"/>
<polyline clip-path="url(#clip182)" style="stroke:#000000; stroke-linecap:round; stroke-linejoin:round; stroke-width:4; stroke-opacity:1; fill:none" points="1102.68,1474.16 1102.68,1474.16 1121.8,1474.16 1102.68,1474.16 "/>
<path clip-path="url(#clip182)" d="M1121.8 1406.22 L1121.8 1474.16 L1140.93 1474.16 L1140.93 1406.22 L1121.8 1406.22 L1121.8 1406.22  Z" fill="#009af9" fill-rule="evenodd" fill-opacity="1"/>
<polyline clip-path="url(#clip182)" style="stroke:#000000; stroke-linecap:round; stroke-linejoin:round; stroke-width:4; stroke-opacity:1; fill:none" points="1121.8,1406.22 1121.8,1474.16 1140.93,1474.16 1140.93,1406.22 1121.8,1406.22 "/>
<path clip-path="url(#clip182)" d="M1140.93 1474.16 L1140.93 1474.16 L1160.05 1474.16 L1160.05 1474.16 L1140.93 1474.16 L1140.93 1474.16  Z" fill="#009af9" fill-rule="evenodd" fill-opacity="1"/>
<polyline clip-path="url(#clip182)" style="stroke:#000000; stroke-linecap:round; stroke-linejoin:round; stroke-width:4; stroke-opacity:1; fill:none" points="1140.93,1474.16 1140.93,1474.16 1160.05,1474.16 1140.93,1474.16 "/>
<path clip-path="url(#clip182)" d="M1160.05 1406.22 L1160.05 1474.16 L1179.18 1474.16 L1179.18 1406.22 L1160.05 1406.22 L1160.05 1406.22  Z" fill="#009af9" fill-rule="evenodd" fill-opacity="1"/>
<polyline clip-path="url(#clip182)" style="stroke:#000000; stroke-linecap:round; stroke-linejoin:round; stroke-width:4; stroke-opacity:1; fill:none" points="1160.05,1406.22 1160.05,1474.16 1179.18,1474.16 1179.18,1406.22 1160.05,1406.22 "/>
<path clip-path="url(#clip182)" d="M1179.18 1474.16 L1179.18 1474.16 L1198.3 1474.16 L1198.3 1474.16 L1179.18 1474.16 L1179.18 1474.16  Z" fill="#009af9" fill-rule="evenodd" fill-opacity="1"/>
<polyline clip-path="url(#clip182)" style="stroke:#000000; stroke-linecap:round; stroke-linejoin:round; stroke-width:4; stroke-opacity:1; fill:none" points="1179.18,1474.16 1179.18,1474.16 1198.3,1474.16 1179.18,1474.16 "/>
<path clip-path="url(#clip182)" d="M1198.3 1406.22 L1198.3 1474.16 L1217.43 1474.16 L1217.43 1406.22 L1198.3 1406.22 L1198.3 1406.22  Z" fill="#009af9" fill-rule="evenodd" fill-opacity="1"/>
<polyline clip-path="url(#clip182)" style="stroke:#000000; stroke-linecap:round; stroke-linejoin:round; stroke-width:4; stroke-opacity:1; fill:none" points="1198.3,1406.22 1198.3,1474.16 1217.43,1474.16 1217.43,1406.22 1198.3,1406.22 "/>
<path clip-path="url(#clip182)" d="M1217.43 1474.16 L1217.43 1474.16 L1236.55 1474.16 L1236.55 1474.16 L1217.43 1474.16 L1217.43 1474.16  Z" fill="#009af9" fill-rule="evenodd" fill-opacity="1"/>
<polyline clip-path="url(#clip182)" style="stroke:#000000; stroke-linecap:round; stroke-linejoin:round; stroke-width:4; stroke-opacity:1; fill:none" points="1217.43,1474.16 1217.43,1474.16 1236.55,1474.16 1217.43,1474.16 "/>
<path clip-path="url(#clip182)" d="M1236.55 1406.22 L1236.55 1474.16 L1255.67 1474.16 L1255.67 1406.22 L1236.55 1406.22 L1236.55 1406.22  Z" fill="#009af9" fill-rule="evenodd" fill-opacity="1"/>
<polyline clip-path="url(#clip182)" style="stroke:#000000; stroke-linecap:round; stroke-linejoin:round; stroke-width:4; stroke-opacity:1; fill:none" points="1236.55,1406.22 1236.55,1474.16 1255.67,1474.16 1255.67,1406.22 1236.55,1406.22 "/>
<path clip-path="url(#clip182)" d="M1255.67 1474.16 L1255.67 1474.16 L1274.8 1474.16 L1274.8 1474.16 L1255.67 1474.16 L1255.67 1474.16  Z" fill="#009af9" fill-rule="evenodd" fill-opacity="1"/>
<polyline clip-path="url(#clip182)" style="stroke:#000000; stroke-linecap:round; stroke-linejoin:round; stroke-width:4; stroke-opacity:1; fill:none" points="1255.67,1474.16 1255.67,1474.16 1274.8,1474.16 1255.67,1474.16 "/>
<path clip-path="url(#clip182)" d="M1274.8 1406.22 L1274.8 1474.16 L1293.92 1474.16 L1293.92 1406.22 L1274.8 1406.22 L1274.8 1406.22  Z" fill="#009af9" fill-rule="evenodd" fill-opacity="1"/>
<polyline clip-path="url(#clip182)" style="stroke:#000000; stroke-linecap:round; stroke-linejoin:round; stroke-width:4; stroke-opacity:1; fill:none" points="1274.8,1406.22 1274.8,1474.16 1293.92,1474.16 1293.92,1406.22 1274.8,1406.22 "/>
<path clip-path="url(#clip182)" d="M1293.92 1474.16 L1293.92 1474.16 L1313.05 1474.16 L1313.05 1474.16 L1293.92 1474.16 L1293.92 1474.16  Z" fill="#009af9" fill-rule="evenodd" fill-opacity="1"/>
<polyline clip-path="url(#clip182)" style="stroke:#000000; stroke-linecap:round; stroke-linejoin:round; stroke-width:4; stroke-opacity:1; fill:none" points="1293.92,1474.16 1293.92,1474.16 1313.05,1474.16 1293.92,1474.16 "/>
<path clip-path="url(#clip182)" d="M1313.05 1406.22 L1313.05 1474.16 L1332.17 1474.16 L1332.17 1406.22 L1313.05 1406.22 L1313.05 1406.22  Z" fill="#009af9" fill-rule="evenodd" fill-opacity="1"/>
<polyline clip-path="url(#clip182)" style="stroke:#000000; stroke-linecap:round; stroke-linejoin:round; stroke-width:4; stroke-opacity:1; fill:none" points="1313.05,1406.22 1313.05,1474.16 1332.17,1474.16 1332.17,1406.22 1313.05,1406.22 "/>
<path clip-path="url(#clip182)" d="M1332.17 1474.16 L1332.17 1474.16 L1351.3 1474.16 L1351.3 1474.16 L1332.17 1474.16 L1332.17 1474.16  Z" fill="#009af9" fill-rule="evenodd" fill-opacity="1"/>
<polyline clip-path="url(#clip182)" style="stroke:#000000; stroke-linecap:round; stroke-linejoin:round; stroke-width:4; stroke-opacity:1; fill:none" points="1332.17,1474.16 1332.17,1474.16 1351.3,1474.16 1332.17,1474.16 "/>
<path clip-path="url(#clip182)" d="M1351.3 1406.22 L1351.3 1474.16 L1370.42 1474.16 L1370.42 1406.22 L1351.3 1406.22 L1351.3 1406.22  Z" fill="#009af9" fill-rule="evenodd" fill-opacity="1"/>
<polyline clip-path="url(#clip182)" style="stroke:#000000; stroke-linecap:round; stroke-linejoin:round; stroke-width:4; stroke-opacity:1; fill:none" points="1351.3,1406.22 1351.3,1474.16 1370.42,1474.16 1370.42,1406.22 1351.3,1406.22 "/>
<path clip-path="url(#clip182)" d="M1370.42 1474.16 L1370.42 1474.16 L1389.55 1474.16 L1389.55 1474.16 L1370.42 1474.16 L1370.42 1474.16  Z" fill="#009af9" fill-rule="evenodd" fill-opacity="1"/>
<polyline clip-path="url(#clip182)" style="stroke:#000000; stroke-linecap:round; stroke-linejoin:round; stroke-width:4; stroke-opacity:1; fill:none" points="1370.42,1474.16 1370.42,1474.16 1389.55,1474.16 1370.42,1474.16 "/>
<path clip-path="url(#clip182)" d="M1389.55 1406.22 L1389.55 1474.16 L1408.67 1474.16 L1408.67 1406.22 L1389.55 1406.22 L1389.55 1406.22  Z" fill="#009af9" fill-rule="evenodd" fill-opacity="1"/>
<polyline clip-path="url(#clip182)" style="stroke:#000000; stroke-linecap:round; stroke-linejoin:round; stroke-width:4; stroke-opacity:1; fill:none" points="1389.55,1406.22 1389.55,1474.16 1408.67,1474.16 1408.67,1406.22 1389.55,1406.22 "/>
<path clip-path="url(#clip182)" d="M1408.67 1474.16 L1408.67 1474.16 L1427.79 1474.16 L1427.79 1474.16 L1408.67 1474.16 L1408.67 1474.16  Z" fill="#009af9" fill-rule="evenodd" fill-opacity="1"/>
<polyline clip-path="url(#clip182)" style="stroke:#000000; stroke-linecap:round; stroke-linejoin:round; stroke-width:4; stroke-opacity:1; fill:none" points="1408.67,1474.16 1408.67,1474.16 1427.79,1474.16 1408.67,1474.16 "/>
<path clip-path="url(#clip182)" d="M1427.79 1406.22 L1427.79 1474.16 L1446.92 1474.16 L1446.92 1406.22 L1427.79 1406.22 L1427.79 1406.22  Z" fill="#009af9" fill-rule="evenodd" fill-opacity="1"/>
<polyline clip-path="url(#clip182)" style="stroke:#000000; stroke-linecap:round; stroke-linejoin:round; stroke-width:4; stroke-opacity:1; fill:none" points="1427.79,1406.22 1427.79,1474.16 1446.92,1474.16 1446.92,1406.22 1427.79,1406.22 "/>
<path clip-path="url(#clip182)" d="M1446.92 1474.16 L1446.92 1474.16 L1466.04 1474.16 L1466.04 1474.16 L1446.92 1474.16 L1446.92 1474.16  Z" fill="#009af9" fill-rule="evenodd" fill-opacity="1"/>
<polyline clip-path="url(#clip182)" style="stroke:#000000; stroke-linecap:round; stroke-linejoin:round; stroke-width:4; stroke-opacity:1; fill:none" points="1446.92,1474.16 1446.92,1474.16 1466.04,1474.16 1446.92,1474.16 "/>
<path clip-path="url(#clip182)" d="M1466.04 1406.22 L1466.04 1474.16 L1485.17 1474.16 L1485.17 1406.22 L1466.04 1406.22 L1466.04 1406.22  Z" fill="#009af9" fill-rule="evenodd" fill-opacity="1"/>
<polyline clip-path="url(#clip182)" style="stroke:#000000; stroke-linecap:round; stroke-linejoin:round; stroke-width:4; stroke-opacity:1; fill:none" points="1466.04,1406.22 1466.04,1474.16 1485.17,1474.16 1485.17,1406.22 1466.04,1406.22 "/>
<path clip-path="url(#clip182)" d="M1485.17 1474.16 L1485.17 1474.16 L1504.29 1474.16 L1504.29 1474.16 L1485.17 1474.16 L1485.17 1474.16  Z" fill="#009af9" fill-rule="evenodd" fill-opacity="1"/>
<polyline clip-path="url(#clip182)" style="stroke:#000000; stroke-linecap:round; stroke-linejoin:round; stroke-width:4; stroke-opacity:1; fill:none" points="1485.17,1474.16 1485.17,1474.16 1504.29,1474.16 1485.17,1474.16 "/>
<path clip-path="url(#clip182)" d="M1504.29 1474.16 L1504.29 1474.16 L1523.42 1474.16 L1523.42 1474.16 L1504.29 1474.16 L1504.29 1474.16  Z" fill="#009af9" fill-rule="evenodd" fill-opacity="1"/>
<polyline clip-path="url(#clip182)" style="stroke:#000000; stroke-linecap:round; stroke-linejoin:round; stroke-width:4; stroke-opacity:1; fill:none" points="1504.29,1474.16 1504.29,1474.16 1523.42,1474.16 1504.29,1474.16 "/>
<path clip-path="url(#clip182)" d="M1523.42 1406.22 L1523.42 1474.16 L1542.54 1474.16 L1542.54 1406.22 L1523.42 1406.22 L1523.42 1406.22  Z" fill="#009af9" fill-rule="evenodd" fill-opacity="1"/>
<polyline clip-path="url(#clip182)" style="stroke:#000000; stroke-linecap:round; stroke-linejoin:round; stroke-width:4; stroke-opacity:1; fill:none" points="1523.42,1406.22 1523.42,1474.16 1542.54,1474.16 1542.54,1406.22 1523.42,1406.22 "/>
<path clip-path="url(#clip182)" d="M1542.54 1474.16 L1542.54 1474.16 L1561.67 1474.16 L1561.67 1474.16 L1542.54 1474.16 L1542.54 1474.16  Z" fill="#009af9" fill-rule="evenodd" fill-opacity="1"/>
<polyline clip-path="url(#clip182)" style="stroke:#000000; stroke-linecap:round; stroke-linejoin:round; stroke-width:4; stroke-opacity:1; fill:none" points="1542.54,1474.16 1542.54,1474.16 1561.67,1474.16 1542.54,1474.16 "/>
<path clip-path="url(#clip182)" d="M1561.67 1406.22 L1561.67 1474.16 L1580.79 1474.16 L1580.79 1406.22 L1561.67 1406.22 L1561.67 1406.22  Z" fill="#009af9" fill-rule="evenodd" fill-opacity="1"/>
<polyline clip-path="url(#clip182)" style="stroke:#000000; stroke-linecap:round; stroke-linejoin:round; stroke-width:4; stroke-opacity:1; fill:none" points="1561.67,1406.22 1561.67,1474.16 1580.79,1474.16 1580.79,1406.22 1561.67,1406.22 "/>
<path clip-path="url(#clip182)" d="M1580.79 1474.16 L1580.79 1474.16 L1599.91 1474.16 L1599.91 1474.16 L1580.79 1474.16 L1580.79 1474.16  Z" fill="#009af9" fill-rule="evenodd" fill-opacity="1"/>
<polyline clip-path="url(#clip182)" style="stroke:#000000; stroke-linecap:round; stroke-linejoin:round; stroke-width:4; stroke-opacity:1; fill:none" points="1580.79,1474.16 1580.79,1474.16 1599.91,1474.16 1580.79,1474.16 "/>
<path clip-path="url(#clip182)" d="M1599.91 1406.22 L1599.91 1474.16 L1619.04 1474.16 L1619.04 1406.22 L1599.91 1406.22 L1599.91 1406.22  Z" fill="#009af9" fill-rule="evenodd" fill-opacity="1"/>
<polyline clip-path="url(#clip182)" style="stroke:#000000; stroke-linecap:round; stroke-linejoin:round; stroke-width:4; stroke-opacity:1; fill:none" points="1599.91,1406.22 1599.91,1474.16 1619.04,1474.16 1619.04,1406.22 1599.91,1406.22 "/>
<path clip-path="url(#clip182)" d="M1619.04 1474.16 L1619.04 1474.16 L1638.16 1474.16 L1638.16 1474.16 L1619.04 1474.16 L1619.04 1474.16  Z" fill="#009af9" fill-rule="evenodd" fill-opacity="1"/>
<polyline clip-path="url(#clip182)" style="stroke:#000000; stroke-linecap:round; stroke-linejoin:round; stroke-width:4; stroke-opacity:1; fill:none" points="1619.04,1474.16 1619.04,1474.16 1638.16,1474.16 1619.04,1474.16 "/>
<path clip-path="url(#clip182)" d="M1638.16 1406.22 L1638.16 1474.16 L1657.29 1474.16 L1657.29 1406.22 L1638.16 1406.22 L1638.16 1406.22  Z" fill="#009af9" fill-rule="evenodd" fill-opacity="1"/>
<polyline clip-path="url(#clip182)" style="stroke:#000000; stroke-linecap:round; stroke-linejoin:round; stroke-width:4; stroke-opacity:1; fill:none" points="1638.16,1406.22 1638.16,1474.16 1657.29,1474.16 1657.29,1406.22 1638.16,1406.22 "/>
<path clip-path="url(#clip182)" d="M1657.29 1474.16 L1657.29 1474.16 L1676.41 1474.16 L1676.41 1474.16 L1657.29 1474.16 L1657.29 1474.16  Z" fill="#009af9" fill-rule="evenodd" fill-opacity="1"/>
<polyline clip-path="url(#clip182)" style="stroke:#000000; stroke-linecap:round; stroke-linejoin:round; stroke-width:4; stroke-opacity:1; fill:none" points="1657.29,1474.16 1657.29,1474.16 1676.41,1474.16 1657.29,1474.16 "/>
<path clip-path="url(#clip182)" d="M1676.41 1406.22 L1676.41 1474.16 L1695.54 1474.16 L1695.54 1406.22 L1676.41 1406.22 L1676.41 1406.22  Z" fill="#009af9" fill-rule="evenodd" fill-opacity="1"/>
<polyline clip-path="url(#clip182)" style="stroke:#000000; stroke-linecap:round; stroke-linejoin:round; stroke-width:4; stroke-opacity:1; fill:none" points="1676.41,1406.22 1676.41,1474.16 1695.54,1474.16 1695.54,1406.22 1676.41,1406.22 "/>
<path clip-path="url(#clip182)" d="M1695.54 1474.16 L1695.54 1474.16 L1714.66 1474.16 L1714.66 1474.16 L1695.54 1474.16 L1695.54 1474.16  Z" fill="#009af9" fill-rule="evenodd" fill-opacity="1"/>
<polyline clip-path="url(#clip182)" style="stroke:#000000; stroke-linecap:round; stroke-linejoin:round; stroke-width:4; stroke-opacity:1; fill:none" points="1695.54,1474.16 1695.54,1474.16 1714.66,1474.16 1695.54,1474.16 "/>
<path clip-path="url(#clip182)" d="M1714.66 1406.22 L1714.66 1474.16 L1733.79 1474.16 L1733.79 1406.22 L1714.66 1406.22 L1714.66 1406.22  Z" fill="#009af9" fill-rule="evenodd" fill-opacity="1"/>
<polyline clip-path="url(#clip182)" style="stroke:#000000; stroke-linecap:round; stroke-linejoin:round; stroke-width:4; stroke-opacity:1; fill:none" points="1714.66,1406.22 1714.66,1474.16 1733.79,1474.16 1733.79,1406.22 1714.66,1406.22 "/>
<path clip-path="url(#clip182)" d="M1733.79 1474.16 L1733.79 1474.16 L1752.91 1474.16 L1752.91 1474.16 L1733.79 1474.16 L1733.79 1474.16  Z" fill="#009af9" fill-rule="evenodd" fill-opacity="1"/>
<polyline clip-path="url(#clip182)" style="stroke:#000000; stroke-linecap:round; stroke-linejoin:round; stroke-width:4; stroke-opacity:1; fill:none" points="1733.79,1474.16 1733.79,1474.16 1752.91,1474.16 1733.79,1474.16 "/>
<path clip-path="url(#clip182)" d="M1752.91 1406.22 L1752.91 1474.16 L1772.03 1474.16 L1772.03 1406.22 L1752.91 1406.22 L1752.91 1406.22  Z" fill="#009af9" fill-rule="evenodd" fill-opacity="1"/>
<polyline clip-path="url(#clip182)" style="stroke:#000000; stroke-linecap:round; stroke-linejoin:round; stroke-width:4; stroke-opacity:1; fill:none" points="1752.91,1406.22 1752.91,1474.16 1772.03,1474.16 1772.03,1406.22 1752.91,1406.22 "/>
<path clip-path="url(#clip182)" d="M1772.03 1406.22 L1772.03 1474.16 L1791.16 1474.16 L1791.16 1406.22 L1772.03 1406.22 L1772.03 1406.22  Z" fill="#009af9" fill-rule="evenodd" fill-opacity="1"/>
<polyline clip-path="url(#clip182)" style="stroke:#000000; stroke-linecap:round; stroke-linejoin:round; stroke-width:4; stroke-opacity:1; fill:none" points="1772.03,1406.22 1772.03,1474.16 1791.16,1474.16 1791.16,1406.22 1772.03,1406.22 "/>
<path clip-path="url(#clip182)" d="M1791.16 1474.16 L1791.16 1474.16 L1810.28 1474.16 L1810.28 1474.16 L1791.16 1474.16 L1791.16 1474.16  Z" fill="#009af9" fill-rule="evenodd" fill-opacity="1"/>
<polyline clip-path="url(#clip182)" style="stroke:#000000; stroke-linecap:round; stroke-linejoin:round; stroke-width:4; stroke-opacity:1; fill:none" points="1791.16,1474.16 1791.16,1474.16 1810.28,1474.16 1791.16,1474.16 "/>
<path clip-path="url(#clip182)" d="M1810.28 1406.22 L1810.28 1474.16 L1829.41 1474.16 L1829.41 1406.22 L1810.28 1406.22 L1810.28 1406.22  Z" fill="#009af9" fill-rule="evenodd" fill-opacity="1"/>
<polyline clip-path="url(#clip182)" style="stroke:#000000; stroke-linecap:round; stroke-linejoin:round; stroke-width:4; stroke-opacity:1; fill:none" points="1810.28,1406.22 1810.28,1474.16 1829.41,1474.16 1829.41,1406.22 1810.28,1406.22 "/>
<path clip-path="url(#clip182)" d="M1829.41 1474.16 L1829.41 1474.16 L1848.53 1474.16 L1848.53 1474.16 L1829.41 1474.16 L1829.41 1474.16  Z" fill="#009af9" fill-rule="evenodd" fill-opacity="1"/>
<polyline clip-path="url(#clip182)" style="stroke:#000000; stroke-linecap:round; stroke-linejoin:round; stroke-width:4; stroke-opacity:1; fill:none" points="1829.41,1474.16 1829.41,1474.16 1848.53,1474.16 1829.41,1474.16 "/>
<path clip-path="url(#clip182)" d="M1848.53 1406.22 L1848.53 1474.16 L1867.66 1474.16 L1867.66 1406.22 L1848.53 1406.22 L1848.53 1406.22  Z" fill="#009af9" fill-rule="evenodd" fill-opacity="1"/>
<polyline clip-path="url(#clip182)" style="stroke:#000000; stroke-linecap:round; stroke-linejoin:round; stroke-width:4; stroke-opacity:1; fill:none" points="1848.53,1406.22 1848.53,1474.16 1867.66,1474.16 1867.66,1406.22 1848.53,1406.22 "/>
<path clip-path="url(#clip182)" d="M1867.66 1474.16 L1867.66 1474.16 L1886.78 1474.16 L1886.78 1474.16 L1867.66 1474.16 L1867.66 1474.16  Z" fill="#009af9" fill-rule="evenodd" fill-opacity="1"/>
<polyline clip-path="url(#clip182)" style="stroke:#000000; stroke-linecap:round; stroke-linejoin:round; stroke-width:4; stroke-opacity:1; fill:none" points="1867.66,1474.16 1867.66,1474.16 1886.78,1474.16 1867.66,1474.16 "/>
<path clip-path="url(#clip182)" d="M1886.78 1406.22 L1886.78 1474.16 L1905.91 1474.16 L1905.91 1406.22 L1886.78 1406.22 L1886.78 1406.22  Z" fill="#009af9" fill-rule="evenodd" fill-opacity="1"/>
<polyline clip-path="url(#clip182)" style="stroke:#000000; stroke-linecap:round; stroke-linejoin:round; stroke-width:4; stroke-opacity:1; fill:none" points="1886.78,1406.22 1886.78,1474.16 1905.91,1474.16 1905.91,1406.22 1886.78,1406.22 "/>
<path clip-path="url(#clip182)" d="M1905.91 1406.22 L1905.91 1474.16 L1925.03 1474.16 L1925.03 1406.22 L1905.91 1406.22 L1905.91 1406.22  Z" fill="#009af9" fill-rule="evenodd" fill-opacity="1"/>
<polyline clip-path="url(#clip182)" style="stroke:#000000; stroke-linecap:round; stroke-linejoin:round; stroke-width:4; stroke-opacity:1; fill:none" points="1905.91,1406.22 1905.91,1474.16 1925.03,1474.16 1925.03,1406.22 1905.91,1406.22 "/>
<path clip-path="url(#clip182)" d="M1925.03 1474.16 L1925.03 1474.16 L1944.15 1474.16 L1944.15 1474.16 L1925.03 1474.16 L1925.03 1474.16  Z" fill="#009af9" fill-rule="evenodd" fill-opacity="1"/>
<polyline clip-path="url(#clip182)" style="stroke:#000000; stroke-linecap:round; stroke-linejoin:round; stroke-width:4; stroke-opacity:1; fill:none" points="1925.03,1474.16 1925.03,1474.16 1944.15,1474.16 1925.03,1474.16 "/>
<path clip-path="url(#clip182)" d="M1944.15 1406.22 L1944.15 1474.16 L1963.28 1474.16 L1963.28 1406.22 L1944.15 1406.22 L1944.15 1406.22  Z" fill="#009af9" fill-rule="evenodd" fill-opacity="1"/>
<polyline clip-path="url(#clip182)" style="stroke:#000000; stroke-linecap:round; stroke-linejoin:round; stroke-width:4; stroke-opacity:1; fill:none" points="1944.15,1406.22 1944.15,1474.16 1963.28,1474.16 1963.28,1406.22 1944.15,1406.22 "/>
<path clip-path="url(#clip182)" d="M1963.28 1406.22 L1963.28 1474.16 L1982.4 1474.16 L1982.4 1406.22 L1963.28 1406.22 L1963.28 1406.22  Z" fill="#009af9" fill-rule="evenodd" fill-opacity="1"/>
<polyline clip-path="url(#clip182)" style="stroke:#000000; stroke-linecap:round; stroke-linejoin:round; stroke-width:4; stroke-opacity:1; fill:none" points="1963.28,1406.22 1963.28,1474.16 1982.4,1474.16 1982.4,1406.22 1963.28,1406.22 "/>
<path clip-path="url(#clip182)" d="M1982.4 1474.16 L1982.4 1474.16 L2001.53 1474.16 L2001.53 1474.16 L1982.4 1474.16 L1982.4 1474.16  Z" fill="#009af9" fill-rule="evenodd" fill-opacity="1"/>
<polyline clip-path="url(#clip182)" style="stroke:#000000; stroke-linecap:round; stroke-linejoin:round; stroke-width:4; stroke-opacity:1; fill:none" points="1982.4,1474.16 1982.4,1474.16 2001.53,1474.16 1982.4,1474.16 "/>
<path clip-path="url(#clip182)" d="M2001.53 1406.22 L2001.53 1474.16 L2020.65 1474.16 L2020.65 1406.22 L2001.53 1406.22 L2001.53 1406.22  Z" fill="#009af9" fill-rule="evenodd" fill-opacity="1"/>
<polyline clip-path="url(#clip182)" style="stroke:#000000; stroke-linecap:round; stroke-linejoin:round; stroke-width:4; stroke-opacity:1; fill:none" points="2001.53,1406.22 2001.53,1474.16 2020.65,1474.16 2020.65,1406.22 2001.53,1406.22 "/>
<path clip-path="url(#clip182)" d="M2020.65 1406.22 L2020.65 1474.16 L2039.78 1474.16 L2039.78 1406.22 L2020.65 1406.22 L2020.65 1406.22  Z" fill="#009af9" fill-rule="evenodd" fill-opacity="1"/>
<polyline clip-path="url(#clip182)" style="stroke:#000000; stroke-linecap:round; stroke-linejoin:round; stroke-width:4; stroke-opacity:1; fill:none" points="2020.65,1406.22 2020.65,1474.16 2039.78,1474.16 2039.78,1406.22 2020.65,1406.22 "/>
<path clip-path="url(#clip182)" d="M2039.78 1474.16 L2039.78 1474.16 L2058.9 1474.16 L2058.9 1474.16 L2039.78 1474.16 L2039.78 1474.16  Z" fill="#009af9" fill-rule="evenodd" fill-opacity="1"/>
<polyline clip-path="url(#clip182)" style="stroke:#000000; stroke-linecap:round; stroke-linejoin:round; stroke-width:4; stroke-opacity:1; fill:none" points="2039.78,1474.16 2039.78,1474.16 2058.9,1474.16 2039.78,1474.16 "/>
<path clip-path="url(#clip182)" d="M2058.9 1406.22 L2058.9 1474.16 L2078.03 1474.16 L2078.03 1406.22 L2058.9 1406.22 L2058.9 1406.22  Z" fill="#009af9" fill-rule="evenodd" fill-opacity="1"/>
<polyline clip-path="url(#clip182)" style="stroke:#000000; stroke-linecap:round; stroke-linejoin:round; stroke-width:4; stroke-opacity:1; fill:none" points="2058.9,1406.22 2058.9,1474.16 2078.03,1474.16 2078.03,1406.22 2058.9,1406.22 "/>
<path clip-path="url(#clip182)" d="M2078.03 1406.22 L2078.03 1474.16 L2097.15 1474.16 L2097.15 1406.22 L2078.03 1406.22 L2078.03 1406.22  Z" fill="#009af9" fill-rule="evenodd" fill-opacity="1"/>
<polyline clip-path="url(#clip182)" style="stroke:#000000; stroke-linecap:round; stroke-linejoin:round; stroke-width:4; stroke-opacity:1; fill:none" points="2078.03,1406.22 2078.03,1474.16 2097.15,1474.16 2097.15,1406.22 2078.03,1406.22 "/>
<path clip-path="url(#clip182)" d="M2097.15 1406.22 L2097.15 1474.16 L2116.27 1474.16 L2116.27 1406.22 L2097.15 1406.22 L2097.15 1406.22  Z" fill="#009af9" fill-rule="evenodd" fill-opacity="1"/>
<polyline clip-path="url(#clip182)" style="stroke:#000000; stroke-linecap:round; stroke-linejoin:round; stroke-width:4; stroke-opacity:1; fill:none" points="2097.15,1406.22 2097.15,1474.16 2116.27,1474.16 2116.27,1406.22 2097.15,1406.22 "/>
<path clip-path="url(#clip182)" d="M2116.27 1406.22 L2116.27 1474.16 L2135.4 1474.16 L2135.4 1406.22 L2116.27 1406.22 L2116.27 1406.22  Z" fill="#009af9" fill-rule="evenodd" fill-opacity="1"/>
<polyline clip-path="url(#clip182)" style="stroke:#000000; stroke-linecap:round; stroke-linejoin:round; stroke-width:4; stroke-opacity:1; fill:none" points="2116.27,1406.22 2116.27,1474.16 2135.4,1474.16 2135.4,1406.22 2116.27,1406.22 "/>
<path clip-path="url(#clip182)" d="M2135.4 1406.22 L2135.4 1474.16 L2154.52 1474.16 L2154.52 1406.22 L2135.4 1406.22 L2135.4 1406.22  Z" fill="#009af9" fill-rule="evenodd" fill-opacity="1"/>
<polyline clip-path="url(#clip182)" style="stroke:#000000; stroke-linecap:round; stroke-linejoin:round; stroke-width:4; stroke-opacity:1; fill:none" points="2135.4,1406.22 2135.4,1474.16 2154.52,1474.16 2154.52,1406.22 2135.4,1406.22 "/>
<path clip-path="url(#clip182)" d="M2154.52 1338.27 L2154.52 1474.16 L2173.65 1474.16 L2173.65 1338.27 L2154.52 1338.27 L2154.52 1338.27  Z" fill="#009af9" fill-rule="evenodd" fill-opacity="1"/>
<polyline clip-path="url(#clip182)" style="stroke:#000000; stroke-linecap:round; stroke-linejoin:round; stroke-width:4; stroke-opacity:1; fill:none" points="2154.52,1338.27 2154.52,1474.16 2173.65,1474.16 2173.65,1338.27 2154.52,1338.27 "/>
<path clip-path="url(#clip182)" d="M2173.65 1406.22 L2173.65 1474.16 L2192.77 1474.16 L2192.77 1406.22 L2173.65 1406.22 L2173.65 1406.22  Z" fill="#009af9" fill-rule="evenodd" fill-opacity="1"/>
<polyline clip-path="url(#clip182)" style="stroke:#000000; stroke-linecap:round; stroke-linejoin:round; stroke-width:4; stroke-opacity:1; fill:none" points="2173.65,1406.22 2173.65,1474.16 2192.77,1474.16 2192.77,1406.22 2173.65,1406.22 "/>
<path clip-path="url(#clip182)" d="M2192.77 1338.27 L2192.77 1474.16 L2211.9 1474.16 L2211.9 1338.27 L2192.77 1338.27 L2192.77 1338.27  Z" fill="#009af9" fill-rule="evenodd" fill-opacity="1"/>
<polyline clip-path="url(#clip182)" style="stroke:#000000; stroke-linecap:round; stroke-linejoin:round; stroke-width:4; stroke-opacity:1; fill:none" points="2192.77,1338.27 2192.77,1474.16 2211.9,1474.16 2211.9,1338.27 2192.77,1338.27 "/>
<path clip-path="url(#clip182)" d="M2211.9 1270.32 L2211.9 1474.16 L2231.02 1474.16 L2231.02 1270.32 L2211.9 1270.32 L2211.9 1270.32  Z" fill="#009af9" fill-rule="evenodd" fill-opacity="1"/>
<polyline clip-path="url(#clip182)" style="stroke:#000000; stroke-linecap:round; stroke-linejoin:round; stroke-width:4; stroke-opacity:1; fill:none" points="2211.9,1270.32 2211.9,1474.16 2231.02,1474.16 2231.02,1270.32 2211.9,1270.32 "/>
<circle clip-path="url(#clip182)" style="fill:#009af9; stroke:none; fill-opacity:0" cx="270.766" cy="47.2441" r="2"/>
<circle clip-path="url(#clip182)" style="fill:#009af9; stroke:none; fill-opacity:0" cx="289.89" cy="1202.37" r="2"/>
<circle clip-path="url(#clip182)" style="fill:#009af9; stroke:none; fill-opacity:0" cx="309.015" cy="1338.27" r="2"/>
<circle clip-path="url(#clip182)" style="fill:#009af9; stroke:none; fill-opacity:0" cx="328.139" cy="1270.32" r="2"/>
<circle clip-path="url(#clip182)" style="fill:#009af9; stroke:none; fill-opacity:0" cx="347.263" cy="1406.22" r="2"/>
<circle clip-path="url(#clip182)" style="fill:#009af9; stroke:none; fill-opacity:0" cx="366.388" cy="1338.27" r="2"/>
<circle clip-path="url(#clip182)" style="fill:#009af9; stroke:none; fill-opacity:0" cx="385.512" cy="1406.22" r="2"/>
<circle clip-path="url(#clip182)" style="fill:#009af9; stroke:none; fill-opacity:0" cx="404.637" cy="1338.27" r="2"/>
<circle clip-path="url(#clip182)" style="fill:#009af9; stroke:none; fill-opacity:0" cx="423.761" cy="1406.22" r="2"/>
<circle clip-path="url(#clip182)" style="fill:#009af9; stroke:none; fill-opacity:0" cx="442.886" cy="1406.22" r="2"/>
<circle clip-path="url(#clip182)" style="fill:#009af9; stroke:none; fill-opacity:0" cx="462.01" cy="1406.22" r="2"/>
<circle clip-path="url(#clip182)" style="fill:#009af9; stroke:none; fill-opacity:0" cx="481.135" cy="1406.22" r="2"/>
<circle clip-path="url(#clip182)" style="fill:#009af9; stroke:none; fill-opacity:0" cx="500.259" cy="1406.22" r="2"/>
<circle clip-path="url(#clip182)" style="fill:#009af9; stroke:none; fill-opacity:0" cx="519.383" cy="1406.22" r="2"/>
<circle clip-path="url(#clip182)" style="fill:#009af9; stroke:none; fill-opacity:0" cx="538.508" cy="1406.22" r="2"/>
<circle clip-path="url(#clip182)" style="fill:#009af9; stroke:none; fill-opacity:0" cx="557.632" cy="1474.16" r="2"/>
<circle clip-path="url(#clip182)" style="fill:#009af9; stroke:none; fill-opacity:0" cx="576.757" cy="1406.22" r="2"/>
<circle clip-path="url(#clip182)" style="fill:#009af9; stroke:none; fill-opacity:0" cx="595.881" cy="1406.22" r="2"/>
<circle clip-path="url(#clip182)" style="fill:#009af9; stroke:none; fill-opacity:0" cx="615.006" cy="1406.22" r="2"/>
<circle clip-path="url(#clip182)" style="fill:#009af9; stroke:none; fill-opacity:0" cx="634.13" cy="1474.16" r="2"/>
<circle clip-path="url(#clip182)" style="fill:#009af9; stroke:none; fill-opacity:0" cx="653.255" cy="1406.22" r="2"/>
<circle clip-path="url(#clip182)" style="fill:#009af9; stroke:none; fill-opacity:0" cx="672.379" cy="1406.22" r="2"/>
<circle clip-path="url(#clip182)" style="fill:#009af9; stroke:none; fill-opacity:0" cx="691.503" cy="1474.16" r="2"/>
<circle clip-path="url(#clip182)" style="fill:#009af9; stroke:none; fill-opacity:0" cx="710.628" cy="1406.22" r="2"/>
<circle clip-path="url(#clip182)" style="fill:#009af9; stroke:none; fill-opacity:0" cx="729.752" cy="1406.22" r="2"/>
<circle clip-path="url(#clip182)" style="fill:#009af9; stroke:none; fill-opacity:0" cx="748.877" cy="1474.16" r="2"/>
<circle clip-path="url(#clip182)" style="fill:#009af9; stroke:none; fill-opacity:0" cx="768.001" cy="1406.22" r="2"/>
<circle clip-path="url(#clip182)" style="fill:#009af9; stroke:none; fill-opacity:0" cx="787.126" cy="1474.16" r="2"/>
<circle clip-path="url(#clip182)" style="fill:#009af9; stroke:none; fill-opacity:0" cx="806.25" cy="1406.22" r="2"/>
<circle clip-path="url(#clip182)" style="fill:#009af9; stroke:none; fill-opacity:0" cx="825.375" cy="1406.22" r="2"/>
<circle clip-path="url(#clip182)" style="fill:#009af9; stroke:none; fill-opacity:0" cx="844.499" cy="1474.16" r="2"/>
<circle clip-path="url(#clip182)" style="fill:#009af9; stroke:none; fill-opacity:0" cx="863.623" cy="1406.22" r="2"/>
<circle clip-path="url(#clip182)" style="fill:#009af9; stroke:none; fill-opacity:0" cx="882.748" cy="1474.16" r="2"/>
<circle clip-path="url(#clip182)" style="fill:#009af9; stroke:none; fill-opacity:0" cx="901.872" cy="1406.22" r="2"/>
<circle clip-path="url(#clip182)" style="fill:#009af9; stroke:none; fill-opacity:0" cx="920.997" cy="1474.16" r="2"/>
<circle clip-path="url(#clip182)" style="fill:#009af9; stroke:none; fill-opacity:0" cx="940.121" cy="1406.22" r="2"/>
<circle clip-path="url(#clip182)" style="fill:#009af9; stroke:none; fill-opacity:0" cx="959.246" cy="1474.16" r="2"/>
<circle clip-path="url(#clip182)" style="fill:#009af9; stroke:none; fill-opacity:0" cx="978.37" cy="1406.22" r="2"/>
<circle clip-path="url(#clip182)" style="fill:#009af9; stroke:none; fill-opacity:0" cx="997.495" cy="1474.16" r="2"/>
<circle clip-path="url(#clip182)" style="fill:#009af9; stroke:none; fill-opacity:0" cx="1016.62" cy="1406.22" r="2"/>
<circle clip-path="url(#clip182)" style="fill:#009af9; stroke:none; fill-opacity:0" cx="1035.74" cy="1474.16" r="2"/>
<circle clip-path="url(#clip182)" style="fill:#009af9; stroke:none; fill-opacity:0" cx="1054.87" cy="1406.22" r="2"/>
<circle clip-path="url(#clip182)" style="fill:#009af9; stroke:none; fill-opacity:0" cx="1073.99" cy="1474.16" r="2"/>
<circle clip-path="url(#clip182)" style="fill:#009af9; stroke:none; fill-opacity:0" cx="1093.12" cy="1406.22" r="2"/>
<circle clip-path="url(#clip182)" style="fill:#009af9; stroke:none; fill-opacity:0" cx="1112.24" cy="1474.16" r="2"/>
<circle clip-path="url(#clip182)" style="fill:#009af9; stroke:none; fill-opacity:0" cx="1131.37" cy="1406.22" r="2"/>
<circle clip-path="url(#clip182)" style="fill:#009af9; stroke:none; fill-opacity:0" cx="1150.49" cy="1474.16" r="2"/>
<circle clip-path="url(#clip182)" style="fill:#009af9; stroke:none; fill-opacity:0" cx="1169.61" cy="1406.22" r="2"/>
<circle clip-path="url(#clip182)" style="fill:#009af9; stroke:none; fill-opacity:0" cx="1188.74" cy="1474.16" r="2"/>
<circle clip-path="url(#clip182)" style="fill:#009af9; stroke:none; fill-opacity:0" cx="1207.86" cy="1406.22" r="2"/>
<circle clip-path="url(#clip182)" style="fill:#009af9; stroke:none; fill-opacity:0" cx="1226.99" cy="1474.16" r="2"/>
<circle clip-path="url(#clip182)" style="fill:#009af9; stroke:none; fill-opacity:0" cx="1246.11" cy="1406.22" r="2"/>
<circle clip-path="url(#clip182)" style="fill:#009af9; stroke:none; fill-opacity:0" cx="1265.24" cy="1474.16" r="2"/>
<circle clip-path="url(#clip182)" style="fill:#009af9; stroke:none; fill-opacity:0" cx="1284.36" cy="1406.22" r="2"/>
<circle clip-path="url(#clip182)" style="fill:#009af9; stroke:none; fill-opacity:0" cx="1303.49" cy="1474.16" r="2"/>
<circle clip-path="url(#clip182)" style="fill:#009af9; stroke:none; fill-opacity:0" cx="1322.61" cy="1406.22" r="2"/>
<circle clip-path="url(#clip182)" style="fill:#009af9; stroke:none; fill-opacity:0" cx="1341.73" cy="1474.16" r="2"/>
<circle clip-path="url(#clip182)" style="fill:#009af9; stroke:none; fill-opacity:0" cx="1360.86" cy="1406.22" r="2"/>
<circle clip-path="url(#clip182)" style="fill:#009af9; stroke:none; fill-opacity:0" cx="1379.98" cy="1474.16" r="2"/>
<circle clip-path="url(#clip182)" style="fill:#009af9; stroke:none; fill-opacity:0" cx="1399.11" cy="1406.22" r="2"/>
<circle clip-path="url(#clip182)" style="fill:#009af9; stroke:none; fill-opacity:0" cx="1418.23" cy="1474.16" r="2"/>
<circle clip-path="url(#clip182)" style="fill:#009af9; stroke:none; fill-opacity:0" cx="1437.36" cy="1406.22" r="2"/>
<circle clip-path="url(#clip182)" style="fill:#009af9; stroke:none; fill-opacity:0" cx="1456.48" cy="1474.16" r="2"/>
<circle clip-path="url(#clip182)" style="fill:#009af9; stroke:none; fill-opacity:0" cx="1475.61" cy="1406.22" r="2"/>
<circle clip-path="url(#clip182)" style="fill:#009af9; stroke:none; fill-opacity:0" cx="1494.73" cy="1474.16" r="2"/>
<circle clip-path="url(#clip182)" style="fill:#009af9; stroke:none; fill-opacity:0" cx="1513.85" cy="1474.16" r="2"/>
<circle clip-path="url(#clip182)" style="fill:#009af9; stroke:none; fill-opacity:0" cx="1532.98" cy="1406.22" r="2"/>
<circle clip-path="url(#clip182)" style="fill:#009af9; stroke:none; fill-opacity:0" cx="1552.1" cy="1474.16" r="2"/>
<circle clip-path="url(#clip182)" style="fill:#009af9; stroke:none; fill-opacity:0" cx="1571.23" cy="1406.22" r="2"/>
<circle clip-path="url(#clip182)" style="fill:#009af9; stroke:none; fill-opacity:0" cx="1590.35" cy="1474.16" r="2"/>
<circle clip-path="url(#clip182)" style="fill:#009af9; stroke:none; fill-opacity:0" cx="1609.48" cy="1406.22" r="2"/>
<circle clip-path="url(#clip182)" style="fill:#009af9; stroke:none; fill-opacity:0" cx="1628.6" cy="1474.16" r="2"/>
<circle clip-path="url(#clip182)" style="fill:#009af9; stroke:none; fill-opacity:0" cx="1647.73" cy="1406.22" r="2"/>
<circle clip-path="url(#clip182)" style="fill:#009af9; stroke:none; fill-opacity:0" cx="1666.85" cy="1474.16" r="2"/>
<circle clip-path="url(#clip182)" style="fill:#009af9; stroke:none; fill-opacity:0" cx="1685.97" cy="1406.22" r="2"/>
<circle clip-path="url(#clip182)" style="fill:#009af9; stroke:none; fill-opacity:0" cx="1705.1" cy="1474.16" r="2"/>
<circle clip-path="url(#clip182)" style="fill:#009af9; stroke:none; fill-opacity:0" cx="1724.22" cy="1406.22" r="2"/>
<circle clip-path="url(#clip182)" style="fill:#009af9; stroke:none; fill-opacity:0" cx="1743.35" cy="1474.16" r="2"/>
<circle clip-path="url(#clip182)" style="fill:#009af9; stroke:none; fill-opacity:0" cx="1762.47" cy="1406.22" r="2"/>
<circle clip-path="url(#clip182)" style="fill:#009af9; stroke:none; fill-opacity:0" cx="1781.6" cy="1406.22" r="2"/>
<circle clip-path="url(#clip182)" style="fill:#009af9; stroke:none; fill-opacity:0" cx="1800.72" cy="1474.16" r="2"/>
<circle clip-path="url(#clip182)" style="fill:#009af9; stroke:none; fill-opacity:0" cx="1819.85" cy="1406.22" r="2"/>
<circle clip-path="url(#clip182)" style="fill:#009af9; stroke:none; fill-opacity:0" cx="1838.97" cy="1474.16" r="2"/>
<circle clip-path="url(#clip182)" style="fill:#009af9; stroke:none; fill-opacity:0" cx="1858.09" cy="1406.22" r="2"/>
<circle clip-path="url(#clip182)" style="fill:#009af9; stroke:none; fill-opacity:0" cx="1877.22" cy="1474.16" r="2"/>
<circle clip-path="url(#clip182)" style="fill:#009af9; stroke:none; fill-opacity:0" cx="1896.34" cy="1406.22" r="2"/>
<circle clip-path="url(#clip182)" style="fill:#009af9; stroke:none; fill-opacity:0" cx="1915.47" cy="1406.22" r="2"/>
<circle clip-path="url(#clip182)" style="fill:#009af9; stroke:none; fill-opacity:0" cx="1934.59" cy="1474.16" r="2"/>
<circle clip-path="url(#clip182)" style="fill:#009af9; stroke:none; fill-opacity:0" cx="1953.72" cy="1406.22" r="2"/>
<circle clip-path="url(#clip182)" style="fill:#009af9; stroke:none; fill-opacity:0" cx="1972.84" cy="1406.22" r="2"/>
<circle clip-path="url(#clip182)" style="fill:#009af9; stroke:none; fill-opacity:0" cx="1991.97" cy="1474.16" r="2"/>
<circle clip-path="url(#clip182)" style="fill:#009af9; stroke:none; fill-opacity:0" cx="2011.09" cy="1406.22" r="2"/>
<circle clip-path="url(#clip182)" style="fill:#009af9; stroke:none; fill-opacity:0" cx="2030.21" cy="1406.22" r="2"/>
<circle clip-path="url(#clip182)" style="fill:#009af9; stroke:none; fill-opacity:0" cx="2049.34" cy="1474.16" r="2"/>
<circle clip-path="url(#clip182)" style="fill:#009af9; stroke:none; fill-opacity:0" cx="2068.46" cy="1406.22" r="2"/>
<circle clip-path="url(#clip182)" style="fill:#009af9; stroke:none; fill-opacity:0" cx="2087.59" cy="1406.22" r="2"/>
<circle clip-path="url(#clip182)" style="fill:#009af9; stroke:none; fill-opacity:0" cx="2106.71" cy="1406.22" r="2"/>
<circle clip-path="url(#clip182)" style="fill:#009af9; stroke:none; fill-opacity:0" cx="2125.84" cy="1406.22" r="2"/>
<circle clip-path="url(#clip182)" style="fill:#009af9; stroke:none; fill-opacity:0" cx="2144.96" cy="1406.22" r="2"/>
<circle clip-path="url(#clip182)" style="fill:#009af9; stroke:none; fill-opacity:0" cx="2164.09" cy="1338.27" r="2"/>
<circle clip-path="url(#clip182)" style="fill:#009af9; stroke:none; fill-opacity:0" cx="2183.21" cy="1406.22" r="2"/>
<circle clip-path="url(#clip182)" style="fill:#009af9; stroke:none; fill-opacity:0" cx="2202.33" cy="1338.27" r="2"/>
<circle clip-path="url(#clip182)" style="fill:#009af9; stroke:none; fill-opacity:0" cx="2221.46" cy="1270.32" r="2"/>
<path clip-path="url(#clip180)" d="M2005.22 198.488 L2278.98 198.488 L2278.98 94.8081 L2005.22 94.8081  Z" fill="#ffffff" fill-rule="evenodd" fill-opacity="1"/>
<polyline clip-path="url(#clip180)" style="stroke:#000000; stroke-linecap:round; stroke-linejoin:round; stroke-width:4; stroke-opacity:1; fill:none" points="2005.22,198.488 2278.98,198.488 2278.98,94.8081 2005.22,94.8081 2005.22,198.488 "/>
<path clip-path="url(#clip180)" d="M2029.81 167.384 L2177.37 167.384 L2177.37 125.912 L2029.81 125.912 L2029.81 167.384  Z" fill="#009af9" fill-rule="evenodd" fill-opacity="1"/>
<polyline clip-path="url(#clip180)" style="stroke:#000000; stroke-linecap:round; stroke-linejoin:round; stroke-width:4; stroke-opacity:1; fill:none" points="2029.81,167.384 2177.37,167.384 2177.37,125.912 2029.81,125.912 2029.81,167.384 "/>
<path clip-path="url(#clip180)" d="M2215.8 166.336 Q2213.99 170.965 2212.28 172.377 Q2210.57 173.789 2207.7 173.789 L2204.3 173.789 L2204.3 170.224 L2206.8 170.224 Q2208.55 170.224 2209.53 169.391 Q2210.5 168.558 2211.68 165.456 L2212.44 163.511 L2201.96 138.002 L2206.47 138.002 L2214.57 158.28 L2222.67 138.002 L2227.19 138.002 L2215.8 166.336 Z" fill="#000000" fill-rule="nonzero" fill-opacity="1" /><path clip-path="url(#clip180)" d="M2234.48 159.993 L2242.12 159.993 L2242.12 133.627 L2233.81 135.294 L2233.81 131.035 L2242.07 129.368 L2246.75 129.368 L2246.75 159.993 L2254.39 159.993 L2254.39 163.928 L2234.48 163.928 L2234.48 159.993 Z" fill="#000000" fill-rule="nonzero" fill-opacity="1" /></svg>
